<svg xmlns="http://www.w3.org/2000/svg" viewBox="0 0 462 462"><defs><style>.cls-1,.cls-2{stroke:#000;stroke-miterlimit:10;}.cls-2{stroke-width:2px;}</style></defs><title>Artboard 1</title><g id="outer-circle"><path d="M14.94,230.9c0-1.4,0-2.77,0-4.11,0-2.28.12-4.59.26-7.05,0-.42,0-.84.06-1.27.13-2.38.32-4.93.56-7.52.39-4.29.92-8.61,1.57-12.85.13-.88.27-1.79.42-2.68s.29-1.77.45-2.66.32-1.76.49-2.65c.62-3.25,1.32-6.48,2.07-9.6.17-.72.34-1.43.53-2.14s.37-1.5.58-2.25c1.42-5.42,3.07-10.84,4.9-16.1.13-.39.28-.81.42-1.22l.14-.39c2-5.54,4.19-11,6.59-16.31.77-1.71,1.5-3.27,2.22-4.76,1.22-2.55,2.52-5.1,3.84-7.59.7-1.33,1.44-2.68,2.19-4s1.43-2.55,2.18-3.81c.29-.49.58-1,.89-1.5,1.59-2.67,3.29-5.37,5-8l1.17-1.77.79-1.16,1.21-1.75c.89-1.29,1.82-2.58,2.75-3.87,2-2.78,4.07-5.43,6-7.89.91-1.15,1.94-2.4,3.13-3.82l2-2.34.17-.19.38-.42c.79-.92,1.66-1.9,2.54-2.87,1.32-1.47,2.75-3,4.25-4.59,1.1-1.15,2.28-2.36,3.51-3.58a214,214,0,0,1,54.56-39.67c.73-.38,1.5-.76,2.26-1.14,1.51-.75,3-1.48,4.56-2.19.78-.37,1.59-.74,2.39-1.09,1.41-.64,2.94-1.31,4.8-2.1q2.43-1,4.88-2l.22-.08a217,217,0,0,1,55-13.58c1.34-.14,2.66-.28,4-.4l2.86-.25c1.63-.12,3.25-.23,4.88-.32l1.22-.07c1.78-.1,3.6-.17,5.4-.21h.26a215.19,215.19,0,0,1,22.07.56c5.38.41,10.85,1,16.28,1.87.88.13,1.79.27,2.68.43s1.77.29,2.66.45l2.65.49c3.52.67,7.21,1.48,11,2.4l2.13.54c.76.19,1.52.39,2.28.6,1,.26,2,.56,3.08.85,1.49.42,3,.87,4.47,1.32l.25.08.12,0,2.58.82c.88.29,1.71.56,2.53.84s1.71.58,2.58.88c1.63.57,3.27,1.17,4.88,1.79l.35.13c1.43.54,2.89,1.12,4.35,1.72l2.64,1.1c2.36,1,4.75,2.05,7.09,3.15l.22.1c2.52,1.18,4.8,2.3,7,3.42,2.59,1.33,4.93,2.58,7.16,3.83l.46.26,1.57.9c1.72,1,3.15,1.84,4.48,2.65l2,1.2c1.57,1,3.14,2,4.64,3l1.76,1.17c1.65,1.11,3.27,2.24,4.89,3.39,2,1.44,4,2.91,5.9,4.37,0,0,0,0,0,0l.15.11c1.25,1,2.49,1.93,3.72,2.91L368,63.9l1.92,1.59,1.37,1.17.64.54c.82.7,1.64,1.42,2.45,2.14l.54.48,1.9,1.72.09.08c.77.7,1.52,1.4,2.27,2.11.5.46,1,1,1.52,1.44,1.08,1,2.12,2,3.13,3.07,1.34,1.33,2.53,2.55,3.62,3.7.6.62,1.2,1.25,1.79,1.9.81.87,1.64,1.77,2.44,2.66l1.69,1.89c1,1.12,1.94,2.24,2.89,3.36a212.24,212.24,0,0,1,18,24.73c.44.7.89,1.42,1.32,2.14s.92,1.51,1.37,2.28c.63,1.05,1.24,2.08,1.82,3.13s1.18,2.09,1.75,3.14,1.14,2.08,1.7,3.15c.4.74.79,1.51,1.18,2.28,1.48,2.87,2.89,5.8,4.22,8.73.68,1.5,1.35,3,2,4.52l.92,2.17A217.09,217.09,0,0,1,446,209.86V210c.14,1.46.27,2.93.38,4.39v.17c.06.84.12,1.68.17,2.52s.11,1.67.15,2.51.09,1.9.13,2.86v.21c.08,2,.12,3.8.14,5.55s0,3.7,0,5.59c0,1.08,0,2.11-.06,3.17,0,.8,0,1.61-.08,2.4s-.07,1.82-.12,2.76-.09,1.83-.15,2.75c-.07,1.12-.15,2.23-.24,3.34,0,.71-.11,1.44-.18,2.16-.13,1.62-.32,3.41-.55,5.43-.07.67-.15,1.35-.25,2-.42,3.45-.94,7-1.54,10.37l-.37,2.07c-.11.66-.25,1.36-.39,2.07-.26,1.41-.58,2.94-.93,4.52-.13.61-.26,1.23-.4,1.84l-.24,1.06c-.31,1.31-.62,2.59-.93,3.85-.19.78-.39,1.55-.59,2.31s-.38,1.43-.58,2.16-.43,1.54-.64,2.28c-.42,1.49-.86,3-1.32,4.47l-.28.89-.27.86c-.64,2-1.23,3.77-1.81,5.41-.17.49-.34,1-.53,1.51a214,214,0,0,1-10,23.52c-.38.78-.78,1.56-1.19,2.34s-.79,1.54-1.19,2.31c-1.58,3-3.11,5.75-4.69,8.41l-.89,1.5c-1.6,2.67-3.29,5.38-5,8l-1.17,1.77-.79,1.16-1.21,1.75c-.89,1.29-1.82,2.58-2.75,3.86-2,2.77-4.06,5.42-6,7.89-.92,1.15-1.91,2.37-3.13,3.82l-2,2.34-.17.19-.37.42c-.8.92-1.66,1.91-2.54,2.87-1.31,1.46-2.75,3-4.25,4.59-.61.64-1.21,1.26-1.83,1.89-1,1-2,2.07-3.09,3.09-.86.85-1.74,1.7-2.63,2.54s-1.54,1.46-2.34,2.18-1.46,1.34-2.21,2c-1.21,1.09-2.51,2.24-3.86,3.39a209.06,209.06,0,0,1-24.45,18.06c-.71.46-1.44.92-2.17,1.36s-1.43.89-2.16,1.33q-1.44.87-2.92,1.72c-1,.6-2.07,1.2-3.13,1.79s-2.42,1.34-3.63,2-2.42,1.29-3.65,1.91c-.73.38-1.5.76-2.26,1.14-1.51.75-3,1.48-4.56,2.19-.78.37-1.59.74-2.39,1.09-1.58.71-3.18,1.42-4.8,2.1s-3.25,1.34-4.88,2l-.2.08q-1.65.64-3.3,1.26l-.47.17c-1,.36-1.92.71-2.89,1l-2.94,1-2.95,1c-2.32.75-4.61,1.44-6.83,2.08l-2.71.76c-3.45.93-6.92,1.78-10.36,2.55l-3.49.74c-1.86.38-3.72.73-5.58,1.06l-.44.07-2.8.46c-1.57.25-3.15.48-4.74.71-1.83.24-3.65.48-5.48.68-1.33.14-2.65.28-4,.4l-2.85.25c-1.65.12-3.28.23-4.91.32l-1.2.07c-1.76.1-3.59.17-5.4.21h-.26c-3.47.08-6.63.09-9.66,0-2.28,0-4.59-.12-7.05-.26-.42,0-.84,0-1.27-.06-2.37-.13-4.9-.32-7.47-.56-4.28-.39-8.62-.92-12.9-1.57-.89-.13-1.79-.27-2.69-.43s-1.77-.29-2.66-.45l-2.65-.49c-3.27-.63-6.5-1.32-9.6-2.07l-2.14-.53c-.73-.18-1.49-.37-2.25-.57-5.38-1.4-10.8-3.05-16.1-4.9l-1.63-.57c-2.91-1-5.88-2.17-9-3.46l-2.44-1c-1.53-.64-3.11-1.33-4.82-2.11-.79-.35-1.59-.72-2.39-1.09l-.61-.29-1.76-.84c-1.57-.75-3.16-1.53-4.7-2.33l-1.73-.89-.57-.3c-6.07-3.2-12.11-6.77-18-10.62l-2.17-1.45c-.54-.36-1.1-.74-1.65-1.13-1.48-1-3.07-2.14-4.83-3.42q-1.76-1.29-3.51-2.62c-.87-.66-1.74-1.33-2.6-2-1.21-1-2.4-1.92-3.59-2.9-.63-.51-1.27-1-1.91-1.57-.79-.66-1.58-1.34-2.37-2s-1.41-1.22-2.09-1.84c-.37-.32-.77-.68-1.17-1l-.1-.09c-1.51-1.36-3.08-2.81-4.64-4.3q-1.7-1.62-3.35-3.27c-2-2-3.91-4-5.69-5.9-.72-.77-1.44-1.55-2.15-2.34-1.16-1.28-2.31-2.58-3.43-3.88a212.79,212.79,0,0,1-19.66-26.77q-.68-1.09-1.34-2.19c-.51-.83-1-1.68-1.51-2.54s-.93-1.59-1.39-2.4l-.07-.12c-.56-1-1.1-2-1.64-2.93-.67-1.21-1.31-2.42-1.95-3.64-.37-.7-.73-1.4-1.09-2.1-.28-.54-.55-1.08-.82-1.63L37.4,327c-.4-.76-.78-1.56-1.16-2.37s-.76-1.57-1.12-2.38-.71-1.52-1.06-2.29c-.73-1.61-1.44-3.25-2.14-4.89s-1.35-3.25-2-4.88l-.08-.22c-.43-1.09-.84-2.18-1.26-3.28a218.08,218.08,0,0,1-12.33-51.78c-.14-1.29-.27-2.57-.39-3.87-.09-.95-.17-1.9-.25-2.84-.12-1.67-.24-3.29-.33-4.92,0-.33,0-.71-.07-1.1-.1-1.9-.18-3.72-.22-5.5l0-.36,0-.09C15,234.4,14.94,232.62,14.94,230.9ZM153.13,33.7c-1.57.62-3.12,1.26-4.67,1.91-1.82.77-3.32,1.43-4.71,2.07-.79.35-1.57.7-2.33,1.07-1.51.7-3,1.42-4.49,2.16-.73.36-1.47.72-2.19,1.11A210.05,210.05,0,0,0,81.15,81c-1.21,1.2-2.37,2.38-3.44,3.51C76.24,86,74.83,87.52,73.53,89c-.87,1-1.71,1.91-2.54,2.86l-.33.37-.17.19L68.55,94.7c-1.16,1.38-2.17,2.61-3.06,3.73-1.94,2.42-3.94,5-5.93,7.75-.9,1.25-1.81,2.52-2.7,3.79l-1.2,1.73-.77,1.14-1.14,1.72c-1.72,2.62-3.39,5.28-5,7.9l-.87,1.47q-1.11,1.88-2.14,3.74c-.74,1.31-1.46,2.63-2.15,3.94-1.3,2.44-2.57,4.95-3.78,7.45-.71,1.47-1.42,3-2.18,4.66-2.35,5.19-4.52,10.57-6.46,16l-.14.38c-.14.4-.28.79-.41,1.18-1.81,5.18-3.43,10.5-4.82,15.83-.2.74-.38,1.46-.56,2.19s-.35,1.41-.52,2.11c-.74,3.06-1.42,6.23-2,9.42-.17.88-.33,1.74-.49,2.61s-.31,1.73-.44,2.6-.29,1.76-.42,2.63c-.64,4.17-1.16,8.41-1.55,12.62-.24,2.55-.42,5-.55,7.42,0,.39,0,.73,0,1.07v.11c-.13,2.44-.22,4.71-.26,7-.07,3-.06,6.15,0,9.6v.34h0c0,1.66.11,3.38.2,5.09V242c0,.35,0,.7.06,1,.09,1.65.2,3.25.32,4.85.08.94.16,1.87.25,2.81.12,1.27.25,2.53.39,3.8a214,214,0,0,0,12.1,50.81q.6,1.59,1.22,3.19a2.48,2.48,0,0,1,.14.36q.93,2.35,1.91,4.68c.69,1.6,1.38,3.21,2.11,4.81.34.76.68,1.5,1,2.25s.73,1.57,1.1,2.33.73,1.53,1.12,2.28l.25.5c.26.53.53,1.06.8,1.59.35.69.71,1.37,1.07,2.06.63,1.21,1.26,2.39,1.91,3.58q.79,1.45,1.6,2.87l.07.12c.45.79.9,1.58,1.38,2.37s1,1.66,1.48,2.48.88,1.45,1.32,2.16a208.85,208.85,0,0,0,19.3,26.27c1.1,1.28,2.23,2.56,3.37,3.81.7.78,1.4,1.54,2.11,2.3,1.75,1.9,3.58,3.79,5.59,5.79q1.63,1.63,3.29,3.21c1.53,1.46,3.07,2.88,4.55,4.22l.11.1c.37.34.75.67,1.13,1,.7.63,1.39,1.23,2.07,1.82s1.54,1.32,2.32,2c.63.53,1.25,1,1.87,1.54,1.18,1,2.35,1.91,3.54,2.86q1.26,1,2.55,2c1.14.88,2.29,1.73,3.44,2.57,1.72,1.26,3.28,2.36,4.75,3.36.55.39,1.07.75,1.6,1.1l2.14,1.42c5.75,3.78,11.67,7.29,17.62,10.42l.57.3,1.71.88c1.51.79,3.06,1.55,4.6,2.29l1.74.83.62.29c.76.36,1.54.71,2.31,1.06,1.69.77,3.24,1.45,4.73,2.07l2.39,1c3.12,1.27,6,2.38,8.88,3.4l1.57.55c5.22,1.82,10.54,3.44,15.83,4.82.74.2,1.46.38,2.19.56l2.11.52c3,.73,6.21,1.42,9.42,2l2.61.49q1.3.24,2.59.44c.89.15,1.77.29,2.63.42,4.21.64,8.47,1.16,12.67,1.55,2.53.24,5,.42,7.37.55.39,0,.73,0,1.07,0h.11c2.44.13,4.71.22,7,.26,3,.07,6.14.06,9.6,0h.35c1.68,0,3.41-.11,5.09-.2l1.15-.07c1.65-.09,3.25-.2,4.85-.32l2.81-.25c1.31-.12,2.6-.26,3.9-.4,1.79-.2,3.58-.43,5.37-.66,1.54-.22,3.1-.44,4.65-.69l2.76-.46.42-.07c1.81-.32,3.64-.67,5.47-1l3.43-.72c3.37-.76,6.79-1.6,10.15-2.5l2.68-.75c2.18-.62,4.43-1.31,6.7-2l2.9-1,2.9-1c.94-.33,1.88-.68,2.82-1l.47-.17,3.17-1.21a2.53,2.53,0,0,1,.36-.14q2.35-.93,4.68-1.91c1.58-.67,3.16-1.37,4.72-2.07q1.18-.52,2.32-1.06,2.27-1.05,4.49-2.16c.73-.36,1.47-.72,2.19-1.11,1.23-.63,2.42-1.25,3.61-1.89s2.39-1.28,3.56-1.94,2.06-1.16,3.07-1.75,1.92-1.12,2.87-1.7c.72-.43,1.42-.86,2.12-1.3s1.42-.87,2.11-1.32a205.07,205.07,0,0,0,24-17.73c1.33-1.13,2.6-2.25,3.79-3.33.74-.66,1.46-1.32,2.18-2s1.53-1.41,2.28-2.13,1.74-1.66,2.59-2.5c1-1,2-2,3-3,.6-.61,1.2-1.23,1.79-1.85,1.47-1.55,2.88-3.07,4.18-4.52.87-1,1.71-1.91,2.54-2.86l.33-.37.17-.19,1.95-2.29c1-1.23,2.06-2.48,3.06-3.73,1.95-2.43,3.94-5,5.93-7.75.9-1.25,1.81-2.52,2.7-3.79l1.2-1.73.78-1.14,1.14-1.72c1.72-2.62,3.39-5.27,5-7.9l.87-1.47c1.55-2.63,3.05-5.33,4.6-8.26.39-.75.79-1.51,1.17-2.27s.79-1.53,1.16-2.29a210.27,210.27,0,0,0,9.81-23.09c.18-.5.34-1,.51-1.46.57-1.63,1.15-3.35,1.77-5.3l.27-.87.27-.86c.46-1.47.88-2.93,1.3-4.39.21-.73.42-1.46.61-2.19s.4-1.46.58-2.17.39-1.5.58-2.25c.31-1.25.61-2.51.91-3.78l.24-1.06c.14-.61.27-1.2.4-1.8.34-1.56.65-3,.91-4.44.14-.7.27-1.36.39-2l.36-2c.59-3.36,1.1-6.79,1.52-10.2.09-.67.17-1.31.24-2,.23-2,.41-3.75.55-5.36.07-.71.13-1.41.18-2.09.09-1.11.17-2.2.24-3.3q.09-1.35.15-2.69c0-.93.09-1.82.12-2.73s.06-1.57.08-2.34c0-1.07.06-2.08.06-3.1s0-1.81,0-2.7,0-1.87,0-2.8c0-1.72-.06-3.48-.14-5.4,0-.11,0-.23,0-.34,0-.86-.08-1.8-.13-2.75s-.09-1.64-.15-2.45-.11-1.63-.17-2.43a2.83,2.83,0,0,1,0-.28c-.11-1.39-.23-2.78-.36-4.17a2.29,2.29,0,0,1,0-.27,213.06,213.06,0,0,0-15.19-60.6l-.83-2a2.54,2.54,0,0,1-.11-.27Q425,145.16,424,143c-1.3-2.88-2.69-5.75-4.12-8.53-.4-.79-.78-1.53-1.17-2.26-.55-1.06-1.11-2.08-1.68-3.11s-1.14-2.08-1.72-3.09-1.17-2-1.77-3c-.46-.77-.9-1.51-1.35-2.25s-.87-1.42-1.3-2.11a208.19,208.19,0,0,0-17.7-24.27c-.93-1.1-1.87-2.2-2.83-3.29l-1.66-1.86c-.79-.88-1.61-1.77-2.42-2.64-.57-.63-1.15-1.24-1.73-1.84-1.08-1.14-2.24-2.33-3.56-3.64-1-1-2-2-3-3-.53-.51-1-1-1.52-1.44-.75-.71-1.48-1.39-2.23-2.07l-.09-.08-1.87-1.69-.54-.48c-.79-.7-1.59-1.4-2.39-2.08l-.64-.55-1.34-1.14L365.43,67l-1.87-1.53c-1.18-.94-2.38-1.89-3.59-2.82l-.24-.18c-1.83-1.4-3.77-2.84-5.75-4.25-1.59-1.13-3.19-2.24-4.81-3.33l-1.73-1.14c-1.48-1-3-2-4.56-2.93L341,49.65c-1.47-.9-2.94-1.76-4.41-2.61L335,46.16l-.46-.26c-2.18-1.22-4.48-2.45-7-3.76-2.12-1.1-4.35-2.19-6.83-3.35l-.22-.1c-2.29-1.07-4.62-2.11-6.94-3.09l-2.6-1.08c-1.42-.58-2.85-1.15-4.28-1.69l-.26-.1c-1.64-.62-3.25-1.21-4.85-1.78-.84-.3-1.68-.59-2.53-.87s-1.63-.55-2.43-.81l-2.54-.81-.24-.08-.12,0c-1.49-.46-3-.89-4.43-1.31-1-.29-2-.57-3-.84-.76-.22-1.48-.4-2.21-.59l-2.09-.52c-3.7-.91-7.32-1.71-10.78-2.36l-2.61-.49-2.6-.44q-1.33-.23-2.63-.42c-5.34-.82-10.71-1.43-16-1.83A211.21,211.21,0,0,0,225.53,19h-.37c-1.66,0-3.38.11-5.07.2l-1.15.07h0c-1.61.09-3.2.2-4.8.32l-2.81.25c-1.3.12-2.59.26-3.89.4a213,213,0,0,0-53.9,13.31A2.43,2.43,0,0,1,153.13,33.7Zm209,25.61h0Z"/></g><g id="aphrodite-industries"><path d="M231,61.6a168.2,168.2,0,0,0-81.74,315.19l8.58-21.68a145.11,145.11,0,1,1,146.15.1l9.19,21.33A168.2,168.2,0,0,0,231,61.6Z"/><path d="M231,111.86a118,118,0,0,0-63.07,217.73,117.23,117.23,0,0,0,46.27,17.07v27.25a153.3,153.3,0,0,1-26.56-5.32l-7.51,21.53a167.07,167.07,0,0,0,34.07,7v34.23S219,432.8,231,432.8s16.8-1.45,16.8-1.45V397.13A164,164,0,0,0,282,390l-7-22h0a164.48,164.48,0,0,1-27.2,5.91V346.66a117.75,117.75,0,0,0,45.4-16.52A118,118,0,0,0,231,111.86Zm16.8,204.39A88,88,0,1,1,319,229.86,87.72,87.72,0,0,1,247.8,316.25Z"/></g><g id="ennagram"><path d="M436.37,195.07l-89.91-32.73,15.83-89.8-85.7,31.19L231,24.76l-45.59,79L99.72,72.54l15.83,89.8L25.64,195.07l72.11,60.51L51.88,335H146l15.93,90.34,69.08-58,69.07,58L316,335h94.12l-45.87-79.44Zm-93.92-10L391.61,203l-38.89,32.63L338,210.14ZM231,70.21l23.91,41.41-23.9,8.7-23.92-8.7ZM70.4,203l49.16-17.89L124,210.13l-14.7,25.46ZM91.23,312.29l24.18-41.89,22.53,18.9,4.05,23Zm46-157.84-8.3-47.09,44.94,16.36-12.72,22Zm27.83,157.84,0-.26.31.26Zm12.41,70.36L169.07,335h23.35l20.91,17.54Zm107.07,0-35.86-30.09L269.59,335h23.35Zm12.4-70.36h-.26L297,312Zm6.19-35.08-41.81,35.08-2.42,2H203.11l-2.42-2L158.88,277.2l-11.09-62.87,28.9-50L231,144.51l54.31,19.76,28.9,50.06Zm-2.28-131.46-12.72-22,44.94-16.36-8.3,47.09Zm69.92,166.54H320l4.05-23,22.52-18.89Z"/></g><g id="hand"><path d="M462,426v36H381a51.83,51.83,0,0,0-11.14-8.18C357.52,447,346.8,439,340,425.74c-2.59-5.06-9.41-9-15.16-11.23-35.39-13.85-70.9-27.44-106.65-40.34-14-5-28.8-7.69-43-12.31-4.42-1.45-9.52-5-11.52-9C154.59,334.74,138.68,326,121,318.84a16.07,16.07,0,0,1-9.38-8.79c4.23-3.82,7.77-6.31,12-6.87,6.21-.83,12.74.74,20.58,1.41-.56-3.77-1.6-7.25-1.45-10.68s1-9.43,2.41-9.69c3.8-.71,9.57-.33,11.79,2.12,4.15,4.58,7,10.69,9.23,16.61,5.48,14.83,7.86,16.68,25.28,16.13a41.11,41.11,0,0,0-.36-5.69c-3.06-15.61-6.34-31.17-9.27-46.8-1.27-6.74,3.79-11,9.75-7.39,4.81,2.91,9,8.18,11.45,13.37,5,10.76,8.49,22.19,12.74,33.3,5.85,15.26,14.11,24.4,33.23,24.91-2.24-18.58.24-41.53-6.52-58.67-1.68-4.26-2.28-8.83,1.24-12,3.87-2.25,10.81,2.93,12.41,6.24,5.43,11.2,9.23,23.2,13.42,35,2.8,7.85,5.2,19.14,7.83,27.2,12.16-5.63,13.58-11.77,9.15-21.54-3.35-7.42-7.11-14.67-11.07-21.78C269.71,275,267,264,270.48,252.89c1.43-4.62,6.59-9.12,11.18-11.23,1.89-.86,7.87,4,10,7.5,11.13,17.85,21.43,36.21,32.42,54.15,3.69,6,8.39,11.44,12.91,16.91,9.07,11,17.65,22.48,27.65,32.55,23.75,23.9,49.43,45.2,78.89,62.29Q452.86,420.44,462,426Z"/><circle cx="232.28" cy="89.87" r="44.59"/></g><g id="arcanist"><path d="M231,19,47.53,336.78H414.47Zm0,46.55,143.16,248H87.84Z"/><polygon points="87.84 174.66 66.58 185.83 70.64 162.16 53.44 145.39 77.21 141.94 87.84 120.4 98.47 141.94 122.24 145.39 105.04 162.16 109.1 185.83 87.84 174.66"/><polygon points="374.16 174.66 352.9 185.83 356.96 162.16 339.76 145.39 363.53 141.94 374.16 120.4 384.79 141.94 408.56 145.39 391.36 162.16 395.42 185.83 374.16 174.66"/><polygon points="231 409.82 209.74 421 213.8 397.32 196.6 380.56 220.37 377.1 231 355.56 241.63 377.1 265.4 380.56 248.2 397.32 252.26 421 231 409.82"/></g><g id="regency"><path d="M356.14,185.17a45.77,45.77,0,1,0,45.77,45.77A45.77,45.77,0,0,0,356.14,185.17Zm0,87.57a41.8,41.8,0,1,1,41.8-41.8A41.81,41.81,0,0,1,356.14,272.74Z"/><polygon points="356.14 189.52 320.12 251.92 392.17 251.92 356.14 189.52"/><polygon points="84.76 241.08 69.18 251.92 74.67 233.75 59.55 222.29 78.53 221.9 84.76 203.97 90.99 221.9 109.97 222.29 94.84 233.75 100.34 251.92 84.76 241.08"/><polygon points="261.55 241.08 245.97 251.92 251.47 233.75 236.34 222.29 255.32 221.9 261.55 203.97 267.78 221.9 286.76 222.29 271.63 233.75 277.13 251.92 261.55 241.08"/><polygon points="143.69 241.08 128.11 251.92 133.61 233.75 118.48 222.29 137.46 221.9 143.69 203.97 149.92 221.9 168.9 222.29 153.77 233.75 159.27 251.92 143.69 241.08"/><polygon points="202.62 241.08 187.04 251.92 192.54 233.75 177.41 222.29 196.39 221.9 202.62 203.97 208.85 221.9 227.83 222.29 212.7 233.75 218.2 251.92 202.62 241.08"/></g><g id="freya"><path d="M191.53,148.53c-48.15,12-17.08,50.75-23.3,88.85s53.26,35,9.55,72.27-20.65,54.51,1.21,45.89-1.26-15,15-29.66,22.43-37.93,45.73-42.61,54.36-66,20.19-64.84-54.36-46.33,23.3-43.56,146,16.3,139.78-6-6.21-51-49.7-63.85-153.75-7-166.18,11,63.68-1.5,40.38,16.06S191.53,148.53,191.53,148.53Z"/></g><g id="wolf-system"><circle cx="231.03" cy="236.89" r="31.5"/><circle cx="397.45" cy="233.93" r="21.81"/><circle cx="231" cy="16.94" r="13.88"/><circle cx="231.03" cy="357.76" r="21.81"/><path class="cls-1" d="M231,111.1a122.83,122.83,0,1,1-86.85,36,122,122,0,0,1,86.85-36m0-1A123.83,123.83,0,1,0,354.83,233.93,123.83,123.83,0,0,0,231,110.1Z"/><path class="cls-2" d="M231,68.48a165.45,165.45,0,1,1-117,48.46A164.36,164.36,0,0,1,231,68.48m0-1A166.45,166.45,0,1,0,397.45,233.93,166.45,166.45,0,0,0,231,67.48Z"/><circle cx="140.78" cy="231.53" r="11.47"/><path class="cls-1" d="M231,146.85a89.22,89.22,0,1,1-89.22,89.22A89.32,89.32,0,0,1,231,146.85m0-1a90.22,90.22,0,1,0,90.22,90.22A90.22,90.22,0,0,0,231,145.85Z"/></g><g id="centauri-system"><rect x="269.08" y="204.9" width="9.54" height="6" transform="translate(-69.83 217.89) rotate(-38.87)"/><rect x="255.76" y="215.63" width="9.54" height="6" transform="translate(-79.52 211.9) rotate(-38.87)"/><rect x="242.48" y="226.34" width="9.54" height="6" transform="matrix(0.78, -0.63, 0.63, 0.78, -89.17, 205.94)"/><rect x="309.09" y="172.64" width="9.54" height="6" transform="translate(-40.73 235.86) rotate(-38.87)"/><rect x="295.77" y="183.38" width="9.54" height="6" transform="matrix(0.78, -0.63, 0.63, 0.78, -50.42, 229.88)"/><rect x="282.49" y="194.08" width="9.54" height="6" transform="translate(-60.07 223.91) rotate(-38.87)"/><rect x="349.11" y="140.39" width="9.54" height="6" transform="translate(-11.63 253.83) rotate(-38.87)"/><rect x="335.79" y="151.13" width="9.54" height="6" transform="translate(-21.32 247.84) rotate(-38.87)"/><rect x="322.51" y="161.83" width="9.54" height="6" transform="translate(-30.97 241.88) rotate(-38.87)"/><rect x="389.12" y="108.14" width="9.54" height="6" transform="translate(17.47 271.8) rotate(-38.87)"/><rect x="375.8" y="118.87" width="9.54" height="6" transform="translate(7.79 265.81) rotate(-38.87)"/><rect x="362.52" y="129.58" width="9.54" height="6" transform="translate(-1.87 259.85) rotate(-38.87)"/><rect x="429.14" y="75.88" width="9.54" height="6" transform="translate(46.58 289.77) rotate(-38.87)"/><rect x="415.81" y="86.62" width="9.54" height="6" transform="translate(36.89 283.79) rotate(-38.87)"/><rect x="402.54" y="97.32" width="9.54" height="6" transform="translate(27.23 277.82) rotate(-38.87)"/><rect x="215.44" y="263.64" width="9.3" height="6" transform="translate(-112.27 361.91) rotate(-66.46)"/><rect x="222.11" y="248.35" width="9.3" height="6" transform="translate(-94.24 358.83) rotate(-66.46)"/><rect x="228.75" y="233.1" width="9.3" height="6" transform="translate(-76.28 355.76) rotate(-66.46)"/><rect x="195.42" y="309.59" width="9.3" height="6" transform="translate(-166.42 371.14) rotate(-66.46)"/><rect x="202.09" y="294.3" width="9.3" height="6" transform="translate(-148.39 368.07) rotate(-66.46)"/><rect x="208.73" y="279.05" width="9.3" height="6" transform="translate(-130.43 365) rotate(-66.46)"/><rect x="175.4" y="355.55" width="9.3" height="6" transform="translate(-220.57 380.38) rotate(-66.46)"/><rect x="182.06" y="340.25" width="9.3" height="6" transform="translate(-202.54 377.31) rotate(-66.46)"/><rect x="188.71" y="325" width="9.3" height="6" transform="translate(-184.57 374.24) rotate(-66.46)"/><rect x="155.38" y="401.5" width="9.3" height="6" transform="translate(-274.72 389.63) rotate(-66.46)"/><rect x="162.04" y="386.2" width="9.3" height="6" transform="translate(-256.69 386.55) rotate(-66.46)"/><rect x="168.69" y="370.95" width="9.3" height="6" transform="translate(-238.72 383.48) rotate(-66.46)"/><rect x="135.35" y="447.45" width="9.3" height="6" transform="translate(-328.87 398.86) rotate(-66.46)"/><rect x="142.02" y="432.15" width="9.3" height="6" transform="translate(-310.84 395.78) rotate(-66.46)"/><rect x="148.66" y="416.9" width="9.3" height="6" transform="translate(-292.87 392.72) rotate(-66.46)"/><circle cx="233.22" cy="236.8" r="40.86"/><circle cx="233.23" cy="441" r="21"/></g><g id="play"><path d="M124,47.4V414.6L442,231Zm23.29,40.34L395.42,231,147.29,374.26Z"/></g><g id="pause"><path d="M220.58,232.31q0,17.74,0,35.47c0,4.84-1.74,6.57-6.57,6.59s-9.42,0-14.14,0c-3.67,0-5.74-2.11-5.74-5.8q0-36.41,0-72.82c0-3.72,2-5.74,5.74-5.78,4.89,0,9.78,0,14.67,0,4,0,6,2,6,6.07q0,18.14,0,36.27Z"/><path d="M267.85,232.18q0,18.14,0,36.28c0,3.92-1.94,5.88-5.87,5.9q-7.34,0-14.67,0c-3.91,0-5.88-1.94-5.88-5.92q0-27.21,0-54.42,0-8.8,0-17.6c0-4.57,1.87-6.45,6.47-6.47s9.43,0,14.14,0c3.87,0,5.87,2.08,5.88,5.94q0,18.14,0,36.28Z"/></g></svg>