<?xml version="1.0" encoding="utf-8"?>
<!-- Generator: Adobe Illustrator 22.1.0, SVG Export Plug-In . SVG Version: 6.00 Build 0)  -->
<svg version="1.1" id="Layer_1" xmlns="http://www.w3.org/2000/svg" xmlns:xlink="http://www.w3.org/1999/xlink" x="0px" y="0px"
	 viewBox="0 0 709.6 184.3" style="enable-background:new 0 0 709.6 184.3;" xml:space="preserve">
<style type="text/css">
	.st0{fill:#010101;}
</style>
<g>
	<path class="st0" d="M54.5,170.7c-22.2,0-22.5-1.2-22.5-17.3v-31.8h15.1c14.1,0,20.8,0.4,21.8,8.7h2c-0.1-7.1-0.1-9.3-0.1-12.2
		s0-5.7,0.1-13.1h-2c-0.9,9-7.4,9.2-21.8,9.2H32V87.7c0-15.6,2.8-16.4,22.5-16.4c18.3,0,21.4,7.3,25.2,16.4l1.6-0.1
		c-0.1-3.6-0.4-7.6-0.4-11.3c0-4.2,0.3-8.3,0.9-12.2c-6.8,1.3-18.6,1.5-41.9,1.5c-10.8,0-22.7,0-33.6-0.1v2.3
		c13.1,1.6,14.5,7.4,14.5,21.5v64.6c0,14.1-1.5,20.1-14.5,21.8v2c11.9-0.3,24.1-0.4,36.1-0.4c19,0,31.4,0,39.4,1.6
		c1.3-7,4.5-15,8.3-22.2l-1.2-1.5C82.2,164.2,77.5,170.7,54.5,170.7z"/>
	<path class="st0" d="M163.4,158.8c-5.5,7.6-9.4,13.1-28.3,13.1c-16,0-16.2-1-16.2-14.3v-53c0-11.9,1.3-16.4,12.4-17.8v-1.9
		c-6,0-10.7,0.1-16.7,0.1c-6,0-10.9-0.1-16.9-0.1v1.9c10.8,1.3,12,6.1,12,17.8v53.2c0,11.6-1.2,16.6-12,18v1.7
		c9.8-0.2,17.5-0.4,27.4-0.4c15.7,0,25.9,0,32.5,1.3c1.1-5.8,3.7-12.4,6.8-18.4L163.4,158.8z"/>
	<path class="st0" d="M244.5,159.3c-10.3-25.7-19.4-46.8-29.3-77l-1.7,0.2c-16.6,36.7-36.7,83-39.7,87.7c-1.8,2.8-4,4.3-10.7,5.2
		v1.9c6-0.1,9.7-0.2,16.2-0.2c6.7,0,8.8,0.1,16.1,0.2v-2.2c-9.4-0.2-11.8-2.3-11.8-6c0-3.8,2.5-10.7,8.6-25h36.4
		c8.3,21.4,9.1,23.4,9.1,25.7c0,3.4-0.8,4.8-9.1,5.3v2.2c7.1-0.1,8.2-0.2,15.1-0.2c7.2,0,9.8,0.1,16.8,0.2v-2.2
		C251,174.7,248.8,169.9,244.5,159.3z M194,140c4.3-10,10-23.1,17.5-40.5c6.8,17.8,11.8,30.8,15.5,40.5H194z"/>
	<path class="st0" d="M330.4,84.9v1.9c7.2,1.3,12.4,2,12.4,14.9v58c-25.8-31.6-75.1-94.3-86.3-94.3c-4.6,0-8.9,1.4-14.8,4.8V72
		c1.7-0.5,3.2-0.7,4.8-0.7c9.6,0,17.3,9.5,28.4,21.4v67.8c0,13.1-4.9,13.6-12.4,14.9v1.9c6,0,9.4-0.1,15.4-0.1c6,0,9.5,0.1,15.5,0.1
		v-1.9c-7.2-1.3-12.4-2-12.4-14.9V99.6c21.5,24.5,48.7,56.9,66.5,79.4l1.3-0.1v-77.3c0-13.1,4.9-13.6,12.4-14.9v-1.9
		c-6,0-9.4,0.1-15.4,0.1S336.4,84.9,330.4,84.9z"/>
	<path class="st0" d="M411.6,84.1c-7.4,0-13.6,0.8-24.5,0.8c-6,0-10.9-0.1-16.9-0.1v1.9c10.8,1.3,12,6.1,12,17.8v53.2
		c0,11.6-1.2,16.6-12,18v1.7c5.9-0.1,10.6-0.2,16.6-0.2c10.4,0,13.8,0.2,25.4,0.2c35.6,0,52-24,52-48.1
		C464.2,98.2,446.3,84.1,411.6,84.1z M411,171.9c-16.1,0-19.6-1.2-19.6-14.6v-51.8c0-15.2,0.8-15.7,17-15.7
		c32.4,0,45.7,15.1,45.7,43.1C454.2,153.4,443.3,171.9,411,171.9z"/>
	<path class="st0" d="M558.8,174.9c-7.1-2.5-11.3-6.5-19.9-16l-20.4-22.2c16.4-2.8,26-15.1,26-28.8c0-14.4-11.5-23.9-35-23.9
		c-6.5,0-12,1-17.5,1c-6,0-10.9-0.1-16.9-0.1v1.9c10.8,1.3,12,6.1,12,17.8v53.2c0,11.6-1.2,16.6-12,18v1.7
		c5.9-0.1,10.6-0.2,16.6-0.2c6,0,10.9,0.1,17,0.2v-1.7c-11-1.3-12.4-6.1-12.4-18v-20.4h11.3c13.1,12.4,34.4,37.1,37.3,40
		c2.6-0.1,5-0.1,6.8-0.1c1.2,0,2.5,0,4.2,0.1v0.1c0.4,0,0.7,0,1.1,0 M507.4,132h-11.2v-27.8c0-12.8,1.8-15,12.6-15
		c21.4,0,25.8,12.1,25.8,21C534.6,126.9,521.5,132,507.4,132z"/>
	<path class="st0" d="M564.5,84.9v1.9c10.8,1.3,12,6.1,12,17.8v52.9c0,11.6-1.2,16.6-12,18v1.7c5.9-0.1,10.6-0.2,16.6-0.2
		s10.9,0.1,17,0.2v-1.7c-11-1.3-12.4-6.1-12.4-18v-52.9c0-11.9,1.3-16.4,12.4-17.8v-1.9c-6,0-10.7,0.1-16.7,0.1
		C575.4,85,570.5,84.9,564.5,84.9z"/>
	<path class="st0" d="M650.3,84.1c-7.4,0-13.6,0.8-24.5,0.8c-6,0-10.9-0.1-16.9-0.1v1.9c10.8,1.3,12,6.1,12,17.8v53.2
		c0,11.6-1.2,16.6-12,18v1.7c5.9-0.1,10.6-0.2,16.6-0.2c10.4,0,13.8,0.2,25.4,0.2c35.6,0,52-24,52-48.1
		C702.8,98.2,684.9,84.1,650.3,84.1z M649.7,171.9c-16.1,0-19.6-1.2-19.6-14.6v-51.8c0-15.2,0.8-15.7,17-15.7
		c32.4,0,45.7,15.1,45.7,43.1C692.9,153.4,681.9,171.9,649.7,171.9z"/>
	<path class="st0" d="M339.5,6.5l-0.5-0.7c-2.5,4.5-7.8,4.9-16.7,4.9c-7.5,0-13.5,0.1-18.7,0.1c-6.7,0-12-0.1-17.1-0.8
		c0.3,1.8,0.4,3.8,0.4,5.8c0,1.8-0.1,3.6-0.2,5.3l0.8,0.1c1.8-4.3,3.6-7.7,12.3-7.7c4.3,0,5.8,0.2,5.8,7.7v31
		c0,6.6-0.7,9.5-6.8,10.3v1c3.4-0.1,6-0.1,9.5-0.1c3.4,0,6.2,0.1,9.7,0.1v-1c-6.3-0.8-7.1-3.5-7.1-10.3v-31c0-7,1.2-7.7,5.2-7.7
		c9,0,10.8,1.3,14.2,3.5C330.1,11.9,337.6,11.9,339.5,6.5z"/>
	<path class="st0" d="M348.9,63.4v-0.8c-5.2-0.6-5.8-2.9-5.8-8.4V41.9h25v12.3c0,5.4-0.6,7.7-5.6,8.4v0.8c2.7-0.1,4.9-0.1,7.7-0.1
		c2.8,0,5.1,0.1,8,0.1v-0.8c-5.2-0.6-5.8-2.9-5.8-8.4V29.4c0-5.5,0.6-7.7,5.8-8.3v-0.9c-2.8,0-5,0.1-7.8,0.1c-2.8,0-5.1-0.1-7.9-0.1
		v0.9c5,0.6,5.6,2.9,5.6,8.3V39h-25v-9.6c0-5.5,0.6-7.7,5.8-8.3v-0.9c-2.8,0-5,0.1-7.8,0.1c-2.8,0-5.1-0.1-7.9-0.1v0.9
		c5,0.6,5.6,2.9,5.6,8.3v24.8c0,5.4-0.6,7.7-5.6,8.4v0.8c2.7-0.1,4.9-0.1,7.7-0.1C343.8,63.3,346.1,63.3,348.9,63.4z"/>
	<path class="st0" d="M412.3,63.9c0.5-2.7,1.7-5.8,3.2-8.6l-0.4-0.6c-2.6,3.5-4.4,6-13.2,6c-8.6,0-8.7-0.4-8.7-6.7V41.9h5.8
		c5.4,0,8,0.2,8.4,3.4h0.8c-0.1-2.7-0.1-3.6-0.1-4.7c0-1.1,0-2.2,0.1-5h-0.8c-0.3,3.5-2.9,3.5-8.4,3.5h-5.8V28.9
		c0-6,1.1-6.3,8.7-6.3c7.1,0,8.2,2.8,9.7,6.3l0.6-0.1c-0.1-1.4-0.2-2.9-0.2-4.4c0-1.6,0.1-3.2,0.3-4.7c-2.6,0.5-7.2,0.6-16.1,0.6
		c-4.1,0-8.7,0-12.9-0.1v0.9c5,0.6,5.6,2.9,5.6,8.3v24.9c0,5.4-0.6,7.7-5.6,8.4v0.8c4.6-0.1,9.3-0.2,13.9-0.2
		C404.5,63.3,409.3,63.3,412.3,63.9z"/>
</g>
</svg>
