<?xml version="1.0" encoding="utf-8"?>
<!-- Generator: Adobe Illustrator 21.0.0, SVG Export Plug-In . SVG Version: 6.00 Build 0)  -->
<svg version="1.1" id="Layer_1" xmlns="http://www.w3.org/2000/svg" xmlns:xlink="http://www.w3.org/1999/xlink" x="0px" y="0px"
	 viewBox="0 0 512 512" style="enable-background:new 0 0 512 512;" xml:space="preserve">
<path d="M256,0c34.5,0.6,69.1,1,103.6,1.9C389.2,2.7,418,8,443.7,23.6c34.2,20.7,55.1,51.4,61.8,90.5c4,23.2,5.4,47.1,5.7,70.7
	c0.8,50.8,0.5,101.6-0.1,152.4c-0.3,26.7-1.2,53.4-10.1,79.1c-17.2,49.7-52.1,79.9-103.3,89.5c-23.1,4.4-47.1,5.4-70.7,5.7
	c-50.6,0.8-101.2,0.5-151.8-0.1c-26.7-0.3-53.4-1.2-79.1-10c-49.8-17.1-80-52-89.8-103.1c-4.4-23.1-5.4-47.1-5.8-70.7
	c-0.8-50.8-0.5-101.6,0.1-152.4c0.3-26.7,1.2-53.4,10.1-79.1C28.1,46.5,63,16.4,114.1,6.7c23.1-4.4,47.1-4.9,70.7-5.8
	C208.5,0,232.3,0.7,256,0.7C256,0.5,256,0.2,256,0z M466.5,252.1c-0.3,0-0.7,0-1,0c0-20.2,0.4-40.4-0.1-60.5
	c-0.5-19.4-1.3-38.8-3.2-58.1c-4.4-43.2-30.1-73-72.7-81.1c-22.7-4.3-46.4-4.9-69.6-5.3c-42.4-0.8-84.8-0.7-127.2,0
	c-22.2,0.3-44.5,1.1-66.4,4.5c-37,5.7-62.2,27-72.4,63.6c-3.3,11.7-5.2,24.2-5.5,36.4c-1.1,46.3-1.8,92.6-1.6,138.9
	c0.1,29.5,0.8,59,3.3,88.4c3.8,43.4,29.7,73.1,72.4,81.3c22.9,4.4,46.7,5,70.2,5.4c42.4,0.8,84.8,0.6,127.2,0.1
	c19.8-0.2,39.6-1.3,59.2-3.2c18.2-1.8,35.3-7.8,49.9-19.4c23.7-18.9,32.9-44.9,34.3-73.8C465,330.1,465.4,291.1,466.5,252.1z"/>
<path d="M256.5,125c72.9,0,130.9,58.6,130.8,132.3c0,72.1-58.9,130.3-131.8,130.3c-73.1,0-130.9-58.7-130.8-132.9
	C124.8,183.1,183.8,124.9,256.5,125z M256.3,171.1c-46.8-0.1-85.3,38.1-85.5,84.9c-0.2,46.7,38.1,85.2,84.9,85.5
	c46.6,0.2,85.3-38.2,85.5-84.9C341.4,209.8,303,171.2,256.3,171.1z"/>
<path d="M423.2,119.9c-0.1,16.9-13.6,30.6-30.4,30.8c-16.9,0.1-31.1-13.9-31.2-30.8c-0.1-17,13.8-30.8,31-30.8
	C409.9,89.1,423.2,102.5,423.2,119.9z"/>
</svg>
