<?xml version="1.0" encoding="utf-8"?>
<!-- Generator: Adobe Illustrator 23.0.3, SVG Export Plug-In . SVG Version: 6.00 Build 0)  -->
<svg version="1.1" id="Layer_1" xmlns="http://www.w3.org/2000/svg" xmlns:xlink="http://www.w3.org/1999/xlink" x="0px" y="0px"
	 viewBox="0 0 440 3991" style="enable-background:new 0 0 440 3991;" xml:space="preserve">
<path d="M270.2,172.3c1.9,0,3.8-0.4,5.5-1.2c1.9-1,3.7-2.3,5.3-3.9v-5.1c-1.1-0.3-2.2-0.6-3.4-0.7c-1.3-0.2-2.6-0.2-3.8-0.2
	c-3.4,0-6,0.7-8,2.2c-1.3,0.9-2.1,2.3-2.2,3.9c0,1.4,0.6,2.7,1.7,3.6C266.7,171.9,268.4,172.4,270.2,172.3z"/>
<path d="M205.9,151.1c-2.8,0-5.6,1.1-7.6,3.1c-4.1,4-4.2,10.7-0.2,14.8c0.1,0.1,0.1,0.1,0.2,0.2c4.2,4.2,11,4.2,15.2,0
	c4.1-4.1,4.2-10.7,0.1-14.9c0,0-0.1-0.1-0.1-0.1C211.5,152.2,208.8,151.1,205.9,151.1z"/>
<path d="M178.3,206.6c-4.1-3.3-10-3.3-14.1,0c-2,1.5-3.4,3.8-3.7,6.4H182C181.7,210.5,180.4,208.2,178.3,206.6z"/>
<path d="M205.9,257.1c-2.8,0-5.6,1.1-7.6,3.1c-4.1,4-4.2,10.7-0.2,14.8c0.1,0.1,0.1,0.1,0.2,0.2c4.2,4.2,11,4.2,15.2,0
	c4.1-4.1,4.2-10.7,0.1-14.9c0,0-0.1-0.1-0.1-0.1C211.5,258.2,208.8,257.1,205.9,257.1z"/>
<path d="M342.3,214.2c-3.4,0-6.1,0.7-8,2.2c-1.3,0.9-2.1,2.3-2.2,3.9c0,1.4,0.6,2.7,1.7,3.6c1.4,1.1,3.1,1.6,4.8,1.4
	c2,0,4-0.4,5.8-1.2c2-1,3.9-2.3,5.5-3.9v-5.2c-1.2-0.3-2.4-0.6-3.6-0.7C345,214.3,343.7,214.2,342.3,214.2z"/>
<path d="M438.2,135.9c0.2-1.7-10.5-8.1-9.2-9.6s-1.1-7.9-1.1-7.9s-5.5,6.8-4.9,3.2s-2.5-10.7-2.5-10.7s-9.2,15.8-16.3,13.8
	s-1.6-5.6-12-10.5c-10.2-4.8-12,0-26.1-34.1s-89.4-58.2-111.5-68.3s-44.2-8-60.2-8s-61.2,49.2-75.3,62.2s-20.1,38.1-20.1,46.2
	S84,148.2,75,162.3s-19,65.3-19,65.3v12c0,5.4-50.3,55.7-50.3,55.7s39.6,9.5,56.9,17s6,48.5,21.9,59.1s20,83.8,20,83.8
	c5.1-4.6,9.7-9.8,13.5-15.5c7.3-11,15.9-11.1,18.5-17.5c4.3-10.6,16.6-21.8,21.8-22.5s18.8,7.1,31.3,13.5s33.9,19.6,38.8,19.6
	s11.3-6.4,15.1-8.7s5.3-12,6.4-15.1s8.3-2.6,12.8-3s8.7-3,10.2-6.8s2.3-8.3,4.5-9.8s8.3-1.9,10.9-1.9s7.1-4.5,7.9-5.6
	s4.9-10.2,6.8-12.8s6.5-0.5,8,0s17.1,3,22.1,3s9-6.5,11.5-9.5S350,339,350,332s-2-22.6-1.5-25.9s14.1-11.3,17.6-11.8s7-18.1,9-21.3
	s-0.5-12.3,1.3-18.8c1.8-6.5,16.6-39.4,16.6-39.4s10.3,1.3,18.8,1.8s18.8-16.8,25.4-31.9S438,137.6,438.2,135.9z M145.9,278.3
	c-1.9,1.6-4.7,2.3-8.4,2.3c-3.3,0.1-6.5-0.9-9.1-2.8c0,0.4,0,0.8-0.1,1.2c-0.1,0.2-0.2,0.4-0.4,0.5c-0.2,0.1-0.4,0.2-0.7,0.2
	c-0.3,0-0.7-0.1-0.9-0.4c-0.3-0.3-0.4-0.8-0.4-1.2v-4.8c0-0.4,0.1-0.9,0.4-1.2c0.2-0.2,0.5-0.4,0.9-0.4c0.3,0,0.6,0.1,0.9,0.4
	c0.2,0.2,0.4,0.6,0.4,0.9c0,0.8,0.2,1.5,0.6,2.1c0.8,1,1.9,1.8,3.1,2.2c1.7,0.6,3.4,0.9,5.2,0.9c3,0,5.3-0.6,6.8-1.7
	c1.5-1.1,2.2-2.3,2.2-3.6c0-1.5-0.9-2.8-2.3-3.5c-2.1-1-4.3-1.6-6.6-1.8c-2.1-0.1-4.2-0.5-6.3-1.2c-1.2-0.4-2.2-1.2-3-2.2
	c-0.7-0.9-1.1-2-1.1-3.1c0-2,1.2-3.9,3-4.8c2.1-1.2,4.6-1.8,7.1-1.8c2.8-0.1,5.6,0.7,7.9,2.4c0-0.4,0.1-0.8,0.3-1.2
	c0.2-0.2,0.5-0.4,0.8-0.4c0.4,0,0.8,0.1,1.1,0.4c0.3,0.3,0.5,0.8,0.6,1.2v4c0,0.5-0.2,0.9-0.6,1.2c-0.3,0.2-0.6,0.4-1,0.4
	c-0.3,0-0.6-0.1-0.9-0.3c-0.3-0.3-0.4-0.6-0.4-1c-0.1-1.1-0.8-2.2-1.7-2.8c-1.8-1.1-3.9-1.7-6.1-1.6c-2.2-0.1-4.3,0.4-6.1,1.6
	c-1,0.6-1.6,1.6-1.6,2.7c0.1,1.2,0.8,2.3,1.9,2.8c1.6,0.7,3.3,1.1,5.1,1.2c2.3,0.2,4.6,0.6,6.8,1.2c1.6,0.5,3,1.4,4,2.7
	c0.8,1.1,1.3,2.4,1.3,3.7C148.7,275.2,147.6,277.1,145.9,278.3z M150.2,224.6c-0.6,0.6-2,1.3-4.3,2c-2.1,0.7-4.4,1-6.6,1.1
	c-2.4,0.1-4.7-0.6-6.7-1.9c-1.6-1.2-2.6-3.1-2.6-5.2V205h-4c-0.4,0-0.9-0.1-1.2-0.3c-0.2-0.2-0.4-0.5-0.4-0.9c0-0.3,0.1-0.4,0.4-0.6
	s0.6-0.1,1.2-0.1h4v-7.3c0-0.4,0.2-0.9,0.5-1.2c0.2-0.2,0.6-0.4,0.9-0.4c0.4,0,0.8,0.1,1.1,0.4c0.3,0.3,0.5,0.7,0.5,1.2v7.3h12.4
	c0.6,0,1-0.1,1.2,0.1c0.2,0.2,0.4,0.5,0.4,0.8c0,0.3-0.1,0.6-0.4,0.8c-0.4,0.2-0.8,0.3-1.2,0.3H133v15.6c-0.1,1.3,0.5,2.6,1.5,3.4
	c1.3,1,3,1.5,4.7,1.4c1.7,0,3.4-0.3,5.1-0.7c1.5-0.3,2.9-0.9,4.3-1.6c0.3-0.2,0.6-0.3,0.9-0.4c0.3,0,0.6,0.1,0.8,0.4
	c0.2,0.2,0.3,0.5,0.3,0.8C150.5,224.1,150.4,224.4,150.2,224.6L150.2,224.6z M151,151.6c0,0.5-0.2,0.9-0.6,1.2
	c-0.3,0.3-0.6,0.4-1,0.4c-0.4,0-0.7-0.1-1-0.4c-0.3-0.3-0.5-0.8-0.5-1.2V143h-9v28h5.7c0.5,0,0.9,0.2,1.2,0.5c0.3,0.3,0.4,0.6,0.4,1
	c0,0.4-0.1,0.7-0.4,1c-0.3,0.3-0.7,0.5-1.2,0.5h-14.5c-0.4,0-0.9-0.2-1.2-0.5c-0.2-0.2-0.4-0.6-0.4-0.9c0-0.4,0.1-0.8,0.4-1.1
	c0.3-0.3,0.7-0.5,1.2-0.6h5.8v-28h-9v8.6c0,0.5-0.2,0.9-0.5,1.2c-0.3,0.2-0.6,0.4-0.9,0.4c-0.4,0-0.7-0.1-1-0.4
	c-0.3-0.3-0.5-0.8-0.5-1.2V141h27L151,151.6z M158.2,214.2c0-3.3,1.3-6.5,3.8-8.8c2.5-2.4,5.9-3.7,9.4-3.6c6.9-0.3,12.8,5,13.1,11.9
	c0,0.4,0,0.9,0,1.3h-23.8c0.6,6,5.7,10.5,11.7,10.3c1.9,0,3.7-0.3,5.5-0.8c1.7-0.5,3.3-1.2,4.7-2.3c0.3-0.2,0.6-0.4,0.9-0.4
	c0.3,0,0.6,0.1,0.8,0.4c0.2,0.2,0.3,0.5,0.3,0.8c0,0.4-0.2,0.7-0.4,0.9c-1.4,1.2-3,2.1-4.8,2.6c-2.2,0.8-4.6,1.2-7,1.2
	c-3.7,0.1-7.3-1.3-10-3.9C159.6,221.3,158.1,217.8,158.2,214.2L158.2,214.2z M184.4,277.6c-0.6,0.6-2,1.3-4.3,2
	c-2.1,0.7-4.4,1-6.6,1.1c-2.3,0.1-4.5-0.6-6.3-1.9c-1.5-1.3-2.3-3.2-2.2-5.2V258h-4.8c-0.4,0-0.9-0.1-1.2-0.3
	c-0.2-0.2-0.4-0.5-0.4-0.9c0-0.3,0.1-0.4,0.4-0.6c0.2-0.2,0.6-0.1,1.2-0.1h4.8v-7.3c0-0.6-0.1-1,0.1-1.2c0.2-0.2,0.4-0.4,0.7-0.4
	c0.3,0,0.6,0.1,0.9,0.4c0.3,0.3,0.4,0.8,0.3,1.2v7.3h12.6c0.6,0,1-0.1,1.2,0.1c0.2,0.2,0.4,0.5,0.4,0.8c0,0.3-0.1,0.6-0.4,0.8
	c-0.4,0.2-0.8,0.3-1.2,0.3H167v15.6c0,1.3,0.5,2.6,1.6,3.4c1.4,1,3.1,1.5,4.8,1.4c1.7,0,3.5-0.3,5.1-0.7c1.5-0.3,2.9-0.9,4.3-1.6
	c0.3-0.2,0.6-0.3,0.9-0.4c0.3,0,0.6,0.1,0.8,0.4c0.2,0.2,0.3,0.5,0.3,0.8C184.8,277.1,184.6,277.4,184.4,277.6z M185.8,173.5
	c-0.3,0.3-0.8,0.5-1.2,0.5H177c-0.5,0-0.9-0.2-1.2-0.5c-0.2-0.2-0.4-0.6-0.4-0.9c0-0.4,0.1-0.8,0.4-1.1c0.3-0.3,0.8-0.5,1.2-0.6h3
	V157c0-1.6-0.8-3.2-2-4.2c-1.4-1.2-3.3-1.8-5.2-1.7c-1.6,0-3.1,0.4-4.4,1.3c-1.6,1.3-3.1,2.7-4.4,4.2V171h2.6c0.5,0,0.9,0.2,1.2,0.5
	c0.3,0.3,0.4,0.6,0.4,1c0,0.4-0.1,0.7-0.4,1c-0.3,0.3-0.7,0.5-1.2,0.5H159c-0.4,0-0.9-0.2-1.2-0.5c-0.2-0.2-0.4-0.6-0.4-0.9
	c0-0.4,0.1-0.8,0.4-1.1c0.3-0.3,0.7-0.6,1.2-0.6h3v-30h-3.5c-0.4,0.1-0.8,0-1.2-0.3c-0.2-0.2-0.4-0.5-0.4-0.8c0-0.3,0.1-0.5,0.4-0.7
	c0.2-0.2,0.6-0.2,1.2-0.2h5.5v14.2c2.1-2.8,5.4-4.4,8.9-4.4c1.6,0,3.2,0.3,4.6,1c1.3,0.7,2.4,1.7,3.2,3c0.8,1.2,1.3,2.7,1.3,4.2v14
	h2.6c0.5,0,0.9,0.2,1.2,0.5C186.2,172.1,186.2,172.9,185.8,173.5L185.8,173.5z M215.2,276.9c-5.1,5.1-13.4,5.1-18.5,0
	c-5-5-5.1-13.1-0.1-18.2c0,0,0.1-0.1,0.1-0.1c5.1-5.1,13.4-5.1,18.5,0c5.1,5,5.1,13.1,0.1,18.2C215.3,276.8,215.3,276.9,215.2,276.9
	L215.2,276.9z M198.1,194c-0.4,0.1-0.8,0-1.2-0.3c-0.3-0.2-0.4-0.5-0.4-0.8c0-0.3,0.1-0.5,0.4-0.7c0.2-0.2,0.6-0.2,1.2-0.2h9v32h9.3
	c0.5,0,0.9,0.2,1.2,0.5c0.3,0.3,0.4,0.6,0.4,1c0,0.4-0.1,0.7-0.4,1c-0.3,0.3-0.8,0.5-1.2,0.5h-20.7c-0.4,0-0.9-0.2-1.2-0.5
	c-0.2-0.2-0.4-0.6-0.4-0.9c0-0.4,0.1-0.8,0.4-1.1c0.3-0.3,0.7-0.5,1.2-0.6h9.4V194H198.1z M215.2,170.9c-5.1,5.1-13.4,5.1-18.5,0
	c-5-5-5.1-13.1-0.1-18.2c0,0,0.1-0.1,0.1-0.1c5.1-5.1,13.4-5.1,18.5,0c5.1,5,5.1,13.1,0.1,18.2C215.3,170.8,215.2,170.9,215.2,170.9
	L215.2,170.9z M253.8,259.4c-0.2,0.2-0.6,0.4-0.9,0.4c-0.2,0-0.3,0-0.5-0.1c-0.3-0.2-0.5-0.4-0.7-0.6c-0.5-0.5-1.1-1-1.7-1.3
	c-0.4-0.2-0.9-0.4-1.4-0.4c-1.4,0.1-2.7,0.5-3.9,1.2c-1.4,0.8-3.7,2.8-7.7,6V277h10.8c0.5,0,0.9,0.2,1.2,0.5c0.3,0.3,0.4,0.6,0.4,1
	c0,0.4-0.1,0.7-0.4,1c-0.3,0.3-0.8,0.5-1.2,0.5h-18.4c-0.4,0-0.9-0.2-1.2-0.5c-0.2-0.2-0.4-0.6-0.4-0.9c0-0.4,0.1-0.8,0.4-1.1
	c0.3-0.3,0.7-0.6,1.2-0.6h5.6v-19h-4.3c-0.4,0-0.9-0.1-1.2-0.3c-0.2-0.2-0.4-0.5-0.4-0.9c0-0.3,0.1-0.4,0.4-0.6
	c0.2-0.2,0.6-0.1,1.2-0.1h6.3v5.5c2.1-2,4.5-3.8,7-5.3c1.3-0.7,2.8-1.1,4.3-1.2c1.4,0,2.8,0.5,3.9,1.4c1.2,0.9,1.8,1.6,1.8,2.1
	C254.1,258.9,254,259.2,253.8,259.4L253.8,259.4z M232.3,194c-0.4,0.1-0.8,0-1.2-0.3c-0.3-0.2-0.4-0.5-0.4-0.8
	c0-0.3,0.1-0.5,0.4-0.7c0.2-0.2,0.6-0.2,1.2-0.2h8.7v32h9.6c0.5,0,0.9,0.2,1.2,0.5c0.3,0.3,0.4,0.6,0.4,1c0,0.4-0.1,0.7-0.4,1
	c-0.3,0.3-0.8,0.5-1.2,0.5h-20.7c-0.4,0-0.9-0.2-1.2-0.5c-0.2-0.2-0.4-0.6-0.4-0.9c0-0.4,0.1-0.8,0.4-1.1c0.3-0.3,0.7-0.5,1.2-0.6
	h9.1V194H232.3z M256.6,173.5c-0.3,0.3-0.8,0.5-1.2,0.5H251v-18.7c0.1-1.1-0.3-2.2-1.1-3c-0.6-0.7-1.5-1.2-2.5-1.2
	c-0.9,0.1-1.8,0.4-2.5,1c-1.3,1-2.3,2.3-3,3.8V171h1.5c0.5,0,0.9,0.2,1.2,0.5c0.3,0.3,0.4,0.6,0.4,1c0,0.4-0.1,0.7-0.4,1
	c-0.3,0.3-0.7,0.5-1.2,0.5H239v-18.6c0.1-1.1-0.3-2.2-1-3.1c-0.6-0.7-1.5-1.2-2.4-1.2c-0.8,0-1.6,0.3-2.2,0.8
	c-1.4,1-2.5,2.4-3.3,3.9V171h1.5c0.5,0,0.9,0.2,1.2,0.5c0.3,0.3,0.4,0.6,0.4,1c0,0.4-0.1,0.7-0.4,1c-0.3,0.3-0.7,0.5-1.2,0.5h-6.3
	c-0.4,0-0.9-0.2-1.2-0.5c-0.2-0.2-0.4-0.6-0.4-0.9c0-0.4,0.1-0.8,0.4-1.1c0.3-0.3,0.7-0.5,1.2-0.6h1.8v-19h-1.8
	c-0.4,0-0.9-0.1-1.2-0.3c-0.2-0.2-0.4-0.5-0.4-0.9c0-0.3,0.1-0.4,0.4-0.6s0.6-0.1,1.2-0.1h4.8v2c2-2.1,3.8-3.2,5.8-3.2
	c1.1,0,2.2,0.3,3.1,1c1,0.8,1.8,1.8,2.2,2.9c0.9-1.1,1.9-2.1,3.1-2.9c1-0.6,2.1-1,3.2-1c1.5-0.1,2.9,0.5,3.8,1.6
	c1.2,1.2,1.8,2.9,1.8,4.5v16h2.4c0.5,0,0.9,0.2,1.2,0.5C257.1,172.1,257.1,172.9,256.6,173.5L256.6,173.5z M264.5,161.4
	c2.1-1.7,5.1-2.5,9.1-2.5c1.1,0,2.3,0,3.4,0.2c1.3,0.1,2.7,0.3,4,0.6v-3.8c0-1.3-0.6-2.6-1.7-3.3c-1.6-1.1-3.4-1.6-5.3-1.4
	c-2.6,0.2-5.2,0.7-7.6,1.6c-0.4,0.1-0.7,0.2-1.1,0.3c-0.3,0-0.6-0.1-0.8-0.3c-0.2-0.2-0.3-0.5-0.3-0.8c0-0.3,0.1-0.5,0.3-0.8
	c1-0.6,2-0.9,3.1-1.1c2.1-0.7,4.3-1,6.6-1.2c2.6-0.1,5.1,0.7,7.1,2.3c1.6,1.5,2.7,3.1,2.7,4.9V171h2.7c0.5,0,0.9,0.2,1.2,0.5
	c0.3,0.3,0.4,0.6,0.4,1c0,0.4-0.1,0.7-0.4,1c-0.3,0.3-0.8,0.5-1.2,0.5H281v-3.6c-2.9,2.8-6.8,4.3-10.8,4.3c-2.4,0.1-4.7-0.6-6.5-2.1
	c-1.5-1.3-2.4-3.2-2.4-5.2C261.4,165,262.5,162.7,264.5,161.4L264.5,161.4z M281.2,216.5c-2.1-1-4.3-1.6-6.6-1.8
	c-2.1-0.1-4.2-0.5-6.3-1.2c-1.2-0.4-2.2-1.2-3-2.2c-0.7-0.9-1.1-2-1.1-3.1c0-2,1.2-3.9,3-4.8c2.1-1.2,4.6-1.8,7-1.8
	c2.8-0.1,5.6,0.7,7.9,2.4c0-0.4,0.1-0.8,0.3-1.2c0.2-0.2,0.5-0.4,0.8-0.4c0.4,0,0.8,0.1,1.1,0.4c0.3,0.3,0.5,0.8,0.6,1.2v4
	c0,0.5-0.2,0.9-0.6,1.2c-0.3,0.2-0.6,0.4-1,0.4c-0.3,0-0.6-0.1-0.9-0.3c-0.3-0.3-0.4-0.6-0.4-1c-0.1-1.1-0.8-2.2-1.7-2.8
	c-1.8-1.1-3.9-1.7-6-1.6c-2.2-0.1-4.3,0.4-6.1,1.6c-1,0.6-1.6,1.6-1.6,2.7c0.1,1.2,0.8,2.3,2,2.8c1.6,0.7,3.3,1.1,5.1,1.2
	c2.3,0.2,4.6,0.6,6.8,1.2c1.6,0.5,3,1.4,4,2.7c0.8,1.1,1.3,2.4,1.3,3.7c-0.1,2.1-1.1,4.1-2.9,5.3c-1.9,1.6-4.7,2.3-8.4,2.3
	c-3.3,0.1-6.5-0.9-9.1-2.8c0,0.4,0,0.8-0.1,1.2c-0.1,0.2-0.2,0.4-0.4,0.5c-0.2,0.1-0.4,0.2-0.6,0.2c-0.3,0-0.6-0.1-0.9-0.4
	c-0.3-0.3-0.4-0.8-0.4-1.2v-4.8c0-0.4,0.1-0.9,0.4-1.2c0.2-0.2,0.5-0.4,0.9-0.4c0.3,0,0.6,0.1,0.9,0.4c0.2,0.2,0.4,0.6,0.4,0.9
	c0,0.8,0.2,1.5,0.6,2.1c0.8,1,1.9,1.8,3.1,2.2c1.7,0.6,3.4,0.9,5.2,0.9c3,0,5.3-0.6,6.8-1.7s2.2-2.3,2.2-3.6
	C283.4,218.6,282.6,217.2,281.2,216.5L281.2,216.5z M289.9,257.5c-0.1,0.2-0.3,0.3-0.5,0.4c-0.5,0-1,0-1.6,0L273,288h3.6
	c0.4,0,0.9,0.1,1.2,0.4c0.2,0.2,0.4,0.6,0.4,0.9c0,0.4-0.1,0.8-0.4,1.1c-0.3,0.3-0.7,0.6-1.2,0.6h-13.5c-0.5,0-0.9-0.2-1.2-0.6
	c-0.3-0.3-0.4-0.6-0.4-1c0-0.4,0.1-0.7,0.4-1c0.3-0.3,0.8-0.5,1.2-0.5h7.3l4.1-8.3L263.7,258H263c-0.4,0-0.9-0.1-1.2-0.3
	c-0.2-0.2-0.4-0.5-0.4-0.8c0-0.2,0.1-0.5,0.2-0.7c0.1-0.2,0.3-0.1,0.5-0.2c0.2-0.1,0.5,0.1,0.9,0.1h6.4c0.6,0,1-0.1,1.2,0.1
	c0.2,0.2,0.4,0.5,0.4,0.8c0,0.3-0.1,0.6-0.4,0.8c-0.4,0.2-0.8,0.3-1.2,0.3h-3.1l9.6,19.2l9.4-19.2h-3.1c-0.4,0-0.9-0.1-1.2-0.3
	c-0.2-0.2-0.4-0.5-0.4-0.9c0-0.3,0.1-0.4,0.4-0.6c0.2-0.2,0.6-0.1,1.2-0.1h6.4c0.6,0,1-0.1,1.2,0.1c0.2,0.2,0.4,0.5,0.4,0.8
	C290.1,257.1,290,257.3,289.9,257.5L289.9,257.5z M311.9,279.7c-0.7,0.8-1.6,1.2-2.7,1.3h-1c-1-0.1-2-0.5-2.7-1.3
	c-0.7-0.7-1.1-1.7-1.1-2.8c0-2.1,1.7-3.9,3.8-3.9h1c1,0,2,0.4,2.7,1.1C313.4,275.7,313.4,278.1,311.9,279.7L311.9,279.7z
	 M317.2,172.3c-1.9,1.6-4.7,2.3-8.4,2.3c-3.3,0.1-6.5-0.9-9.1-2.8c0,0.4,0,0.8-0.1,1.2c-0.1,0.2-0.2,0.4-0.4,0.5
	c-0.2,0.1-0.4,0.2-0.7,0.2c-0.4,0-0.7-0.1-1-0.4c-0.3-0.3-0.5-0.7-0.5-1.2v-4.8c0-0.4,0.2-0.9,0.5-1.2c0.3-0.2,0.6-0.4,0.9-0.4
	c0.3,0,0.7,0.1,0.9,0.4c0.2,0.2,0.4,0.6,0.4,0.9c0,0.8,0.2,1.5,0.6,2.1c0.8,1,1.9,1.8,3.1,2.2c1.7,0.6,3.4,0.9,5.2,0.9
	c3,0,5.3-0.6,6.8-1.7c1.5-1.1,2.2-2.3,2.2-3.6c0-1.5-0.9-2.8-2.3-3.5c-2.1-1-4.3-1.6-6.6-1.8c-2.1-0.1-4.2-0.5-6.3-1.2
	c-1.2-0.4-2.2-1.2-3-2.2c-0.7-0.9-1.1-2-1.1-3.1c0-2,1.2-3.9,3-4.8c2.1-1.2,4.5-1.8,7-1.8c2.8-0.1,5.6,0.7,7.9,2.4
	c0-0.4,0.1-0.8,0.3-1.2c0.2-0.2,0.5-0.4,0.8-0.4c0.4,0,0.7,0.1,1,0.4c0.3,0.3,0.4,0.8,0.4,1.2v4c0,0.4-0.1,0.9-0.4,1.2
	c-0.2,0.2-0.6,0.4-0.9,0.4c-0.3,0-0.6-0.1-0.8-0.3c-0.2-0.3-0.4-0.6-0.4-1c-0.1-1.1-0.8-2.2-1.7-2.8c-1.8-1.1-3.9-1.7-6-1.6
	c-2.2-0.1-4.3,0.4-6.1,1.6c-1,0.6-1.6,1.6-1.6,2.7c0.1,1.2,0.8,2.3,2,2.8c1.6,0.7,3.3,1.1,5.1,1.2c2.3,0.2,4.6,0.6,6.8,1.2
	c1.6,0.5,3,1.4,4,2.7c0.8,1.1,1.3,2.4,1.3,3.7C320,169.2,318.9,171.1,317.2,172.3L317.2,172.3z M356.4,226.5
	c-0.3,0.3-0.8,0.5-1.2,0.5H350v-3.6c-4,2.9-7.2,4.3-11.1,4.3c-2.4,0.1-4.8-0.6-6.7-2.1c-1.5-1.3-2.4-3.2-2.4-5.2
	c0-2.4,1.2-4.6,3.1-5.9c2.1-1.7,5.1-2.5,9.1-2.5c1.2,0,2.5,0.1,3.7,0.2c1.3,0.1,2.3,0.4,4.3,0.6v-3.8c-0.1-1.4-0.8-2.6-1.9-3.3
	c-1.6-1.1-3.5-1.6-5.4-1.4c-2.6,0.2-5.2,0.7-7.7,1.6c-0.4,0.1-0.8,0.2-1.2,0.3c-0.3,0-0.6-0.1-0.8-0.3c-0.2-0.2-0.3-0.5-0.3-0.8
	c0-0.3,0.1-0.5,0.3-0.8c1-0.6,2-0.9,3.1-1.1c2.1-0.7,4.3-1,6.6-1.2c2.5-0.2,4.9,0.6,6.9,2.2c1.5,1.2,2.4,3,2.5,4.9V224h3.2
	c0.5,0,0.9,0.2,1.2,0.5C356.9,225.1,356.9,225.9,356.4,226.5L356.4,226.5z"/>
<path d="M418.6,3484.8c-5.4-6.8-10.7-13.6-16-20.4c-9.3-11.9-34.5-43.9-43.8-55.8c0-0.1-0.1-0.2-0.2-0.2c-2-2.6-5.7-3.1-8.2-1.1
	c-1.2,0.8-2.3,1.7-3.4,2.5l-16.1,12.5c-9.6-12.2-3-4.3-12.5-16.4c5-4,9.6-7.7,14.3-11.5c3.8-3.1,4-6.9,1-10.6
	c-9.1-11.3-18.2-22.6-27.4-33.9c-1-1-1.3-2.5-0.9-3.8c0-23-2.4-40-2.4-59.9v-27.6c26.7-2.6,33-15.9,33-42.5
	c0-18.1-13.6-27.5-33-30.7V2944c24.3-52.8,47-107.6,47-147c0-34.2-21.6-87.2-47-152.8v-551.7c26.5-19.5,51.8-26.5,62-35.5
	c28.6-25.2,36.6-42.6,38.2-68.5c0-0.1,0-0.1,0-0.1c0.2-3.1,0.3-6.4,0.3-9.8v-0.4c0-0.5,0-1,0-1.5c0-2.7-0.1-5.3-0.3-7.8
	c0-0.1,0-0.1,0-0.2c-2.3-28.3-17.1-46.5-38.2-65.6c-8.9-8.1-34.8-14.9-62-35.5v-551.8c25.4-65.5,47-118.5,47-152.7
	c0-39.3-22.7-94.2-47-146.9V774.7c19.4-3.2,33-12.6,33-30.7c0-26.6-6.3-39.9-33-42.5v-27.6c0-19.9,2.4-36.9,2.4-59.9
	c-0.4-1.3-0.1-2.8,0.9-3.8c9.1-11.3,18.2-22.6,27.4-33.9c3-3.7,2.8-7.6-1-10.6c-4.6-3.8-9.3-7.5-14.3-11.5
	c9.5-12.1,2.9-4.1,12.5-16.4l16,12.6c1.1,0.9,2.2,1.8,3.4,2.5c0.1,0.1,0.1,0.1,0.2,0.2c2.7,1.8,6.3,1.2,8.2-1.5
	c9.3-11.9,34.5-43.9,43.8-55.8c5.3-6.8,10.6-13.6,16-20.4c4.9-6.2,7.5-13.1,7.1-21c0-0.5,0.1-1,0.2-1.4l-1.7-7.3
	c-0.4-0.6-0.8-1.2-1.2-1.8c-2.1-4.4-5.3-8.3-9.2-11.3c-8.7-6.8-17.3-13.7-26.1-20.4c-5.9-4.6-12.4-7.6-20.1-7.4
	c-9.8,0.3-17.5,4.6-23.4,12.3c-5.7,7.3-11.3,14.5-17,21.8c-8.9,11.5-36.1,45.7-45,57.3c-2.4,3.1-1.9,6.5,1.2,9
	c2.7,2.1,5.4,4.2,8.1,6.3l11.3,8.8c-9.4,12.1-0.6,1.3-10,13.3l-12.6-10.1c-3.9-3.2-7.7-2.8-10.8,1.1c-1.6,2-3.2,4-4.8,6
	c-8.1,10.1-16.3,20.2-24.3,30.3c-3.1,3.8-2.5,7.5,1.3,10.6c1.9,1.6,3.8,3.3,5.8,4.7c1.7,1.1,1.4,2,0.4,3.4c-2,2.7-3.9,5.5-5.9,8.3
	c-8.3,11.8-16.5,23.7-24.9,35.5c-4.6,6.6-8.5,13.6-9.2,21.8c-0.3,3.4-1.6,5.6-3.4,8.3c-6.9,10.3-13.9,20.5-19.9,31.3
	c-7.8,13.9-14.3,28.4-13.5,44.9l1.4,5.8c5.1,9.8,13.7,12.4,23.9,11.4c4-0.4,12.6-5.1,15.8-8.6c2.9-3.2,27.8-23.7,66-27.4l0.1,53.9
	C248.7,772.4,233,810.9,233,873c0,31.6,22.2,78.5,45.7,128.5l0.8,328.4c-34.4,87.4-72.9,197.4-73.5,322.2c0,1,0,2,0,2.9
	c0,1.3,0,2.6,0,3.8c0,0.2,0,0.3,0,0.5c0,0.9,0,1.8,0,2.7c0,0.9,0,1.8,0,2.7c1.9,112.6,37.7,173.1,74.6,208.2l0.2,102h0l-0.3,112.9
	c-38.2,34.7-74.7,95.4-74.7,217.1c0,126,38.8,237,73.5,325.1l-0.8,328.4c-23.5,50.1-45.7,97-45.7,128.5
	c0,62.1,15.7,100.6,45.1,108.5l-0.1,53.9c-38.2-3.7-63-24.2-66-27.4c-3.2-3.5-11.8-8.2-15.8-8.6c-10.2-1-18.8,1.5-23.9,11.4
	l-1.4,5.8c-0.8,16.5,5.7,31,13.5,44.9c6.1,10.7,13.1,21,19.9,31.3c1.8,2.6,3.1,4.9,3.4,8.3c0.7,8.1,4.5,15.1,9.2,21.8
	c8.3,11.8,16.6,23.7,24.9,35.5c1.9,2.8,3.9,5.6,5.9,8.3c1,1.4,1.3,2.3-0.4,3.4c-2.1,1.4-3.9,3.1-5.8,4.7c-3.8,3.1-4.4,6.7-1.3,10.6
	c8.1,10.1,16.2,20.2,24.3,30.3c1.6,2,3.2,4,4.8,6c3.2,3.9,6.9,4.3,10.8,1.1l12.6-10.1c9.4,12,0.5,1.2,10,13.3l-11.3,8.8
	c-2.7,2.1-5.4,4.2-8.1,6.3c-3.1,2.5-3.6,5.9-1.2,9c8.9,11.6,36,45.7,45,57.3c5.7,7.3,11.4,14.5,17,21.8c5.9,7.7,13.6,12,23.4,12.3
	c7.7,0.3,14.2-2.8,20.1-7.4c8.7-6.8,17.4-13.6,26.1-20.4c3.9-2.9,7.1-6.8,9.2-11.3c0.4-0.6,0.7-1.3,1.2-1.8l1.7-7.3
	c-0.1-0.5-0.2-0.9-0.2-1.4C426,3497.8,423.5,3490.9,418.6,3484.8z M303,710.9c30.5,4.9,25,27.7,25,33.1c0,5.2-0.8,15.6-25,18.3
	V710.9z M303,1055c16.8,39.1,30,77.6,30,110c0,26.2-12.7,62-30,105.8V1055z M198.3,733.5c-2.7,0.5-5.5,0.6-8.2,0.4
	c-3.8-0.2-5.7-2-6.3-5.9c-0.8-5.1,0.3-10.1,1.9-14.9c6.3-19,17-35.7,28.5-52c1.7-2.5,4.2-4.4,7.1-5.4c8.6-3.2,14.9-9.4,20.6-16.4
	c8.5-10.3,16.9-20.6,25.4-31c2.5-3.1,5.1-6.1,8.1-9.9l0.8,3.3c0,31.4,1.8,50.4,1.8,78.1l0,22C231.7,706.4,200.8,733,198.3,733.5z
	 M245,872c-3.6-50.6,9.9-88.1,33.2-94.9l0.4,186.7C260.9,925.8,246.5,892.5,245,872z M277.9,3280.2c0,27.7-1.8,46.7-1.8,78.1
	l-0.8,3.3c-3.1-3.7-5.6-6.8-8.1-9.9c-8.5-10.3-16.9-20.6-25.4-31c-5.7-7-12-13.2-20.6-16.4c-2.9-1-5.4-2.9-7.1-5.4
	c-11.5-16.2-22.1-32.9-28.5-52c-1.6-4.8-2.7-9.8-1.9-14.9c0.6-3.8,2.4-5.6,6.3-5.8c2.7-0.2,5.5-0.1,8.2,0.3
	c2.4,0.5,33.3,27.1,79.6,31.8L277.9,3280.2z M278.1,3182.9c-23.3-6.8-36.8-44.3-33.2-94.9c1.5-20.5,15.9-53.8,33.6-91.8
	L278.1,3182.9z M279.5,2581.9c-29.3-81.6-56.6-176.8-56.6-276.9c0-103.7,26.9-159.8,57.7-192.7L279.5,2581.9z M328,3216
	c0,5.3,5.6,28.1-25,33.1v-51.4C327.2,3200.4,328,3210.8,328,3216z M333,2795c0,32.3-13.2,70.9-30,110v-215.9
	C320.3,2733,333,2768.8,333,2795z M361,1924.1c4.8,5.4,8.5,10.6,11.5,15.8v0c0,0,0,0,0,0c11,13.3,10.3,17.5,9.9,35.1
	c0,1.2-0.1,2.4-0.1,3.5v0c-0.6,14.9-3.2,26.9-9.8,38.6l0,0c-2.8,5.1-6.5,10.1-11,15.3l0,0.1c-0.1,0.2-0.3,0.3-0.4,0.5
	c-9.6,10.9-32.6,19.7-58,37.3V1985h0.1v-98.1C328.4,1904.4,351.4,1913.2,361,1924.1z M279.6,1378.1l1.1,466.6l0,2.5
	c-30-32.6-56.4-87.4-57.6-185.2c0-0.9,0-1.8,0-2.7v-0.4c0-1.3,0-2.6,0-3.9C223,1554.9,250.3,1459.7,279.6,1378.1z"/>
<path d="M403.5,1980.5c0,2.7-0.1,5.3-0.3,7.8c0,0,0,0.1,0,0.1c-2.3,28.4-17.1,46.5-38.2,65.6l-3.6-21.6l0-0.1l11-15.3l0,0
	c11-13.3,10.3-17.5,10-35.1c0-1.2-0.1-2.4-0.1-3.5v0c-0.6-14.9-3.2-26.9-9.8-38.6c0,0,0,0,0,0v0c-3-5.3-6.7-10.5-11.5-15.8
	c-9.6-10.9-32.6-19.6-57.9-37.2c-7.3-5.1-14.8-10.9-22.3-17.7c-36.8-33.5-72.2-91.2-74.6-204.4c0-0.9,0-1.8,0-2.7c0-0.9,0-1.8,0-2.7
	c0-0.2,0-0.3,0-0.5c0-2.2,0-4.5,0-6.8h17c0,2.3,0,4.6,0.1,6.9v0.4c0,0.9,0,1.8,0,2.7c1.2,97.8,27.6,152.6,57.6,185.2l0-2.5
	c7.3,7.8,14.9,14.3,22.4,19.8v2.9c27.2,20.6,53,27.4,62,35.5c21.1,19.1,35.9,37.2,38.2,65.6c0,0.1,0,0.1,0,0.2
	c0.2,3,0.3,6.1,0.3,9.4v0.4C403.5,1979.2,403.5,1979.8,403.5,1980.5z"/>
</svg>
