<?xml version="1.0" encoding="utf-8"?>
<!-- Generator: Adobe Illustrator 21.0.0, SVG Export Plug-In . SVG Version: 6.00 Build 0)  -->
<svg id="Layer_1" data-name="Layer 1" xmlns="http://www.w3.org/2000/svg" viewBox="0 0 440 3991">
<path d="M270.17,172.32a12.81,12.81,0,0,0,5.55-1.21,23,23,0,0,0,5.27-3.86V162.1a19.14,19.14,0,0,0-3.39-.7,31.48,31.48,0,0,0-3.83-.22c-3.4,0-6,.73-7.95,2.2a4.81,4.81,0,0,0-2.16,3.93,4.56,4.56,0,0,0,1.66,3.57A7.16,7.16,0,0,0,270.17,172.32Z"/><path d="M205.94,151.14a10.39,10.39,0,0,0-7.59,3.11,10.48,10.48,0,0,0,0,15,10.82,10.82,0,0,0,15.19,0,10.51,10.51,0,0,0,0-15A10.41,10.41,0,0,0,205.94,151.14Z"/><path d="M178.34,206.64a11.38,11.38,0,0,0-14.11,0,9.44,9.44,0,0,0-3.68,6.38H182A9.34,9.34,0,0,0,178.34,206.64Z"/><path d="M205.94,257.14a10.39,10.39,0,0,0-7.59,3.11,10.48,10.48,0,0,0,0,15,10.82,10.82,0,0,0,15.19,0,10.51,10.51,0,0,0,0-15A10.41,10.41,0,0,0,205.94,257.14Z"/><path d="M342.32,214.18q-5.1,0-8,2.2a4.82,4.82,0,0,0-2.17,3.93,4.56,4.56,0,0,0,1.66,3.57,7.14,7.14,0,0,0,4.83,1.45,14,14,0,0,0,5.8-1.21,23.85,23.85,0,0,0,5.52-3.86V215.1a22.23,22.23,0,0,0-3.64-.7A35,35,0,0,0,342.32,214.18Z"/><path d="M438.18,135.88c.19-1.69-10.54-8.09-9.22-9.6s-1.13-7.91-1.13-7.91-5.46,6.78-4.89,3.18-2.45-10.71-2.45-10.71-9.22,15.81-16.25,13.8-1.57-5.55-12-10.54c-10.16-4.84-12,0-26.1-34.14S276.73,21.74,254.64,11.7s-44.17-8-60.23-8-61.23,49.2-75.29,62.25S99.05,104.06,99.05,112.1,84,148.24,75,162.3s-19,65.26-19,65.26v12C56,245,5.67,295.28,5.67,295.28s39.61,9.48,56.93,17,6,48.54,21.86,59.08,20,83.76,20,83.76A83.45,83.45,0,0,0,118,439.63c7.3-11,15.87-11.13,18.46-17.45,4.34-10.59,16.57-21.8,21.84-22.55s18.82,7.15,31.25,13.55,33.88,19.58,38.78,19.58,11.29-6.4,15.06-8.66,5.27-12,6.4-15.06,8.28-2.64,12.8-3,8.66-3,10.17-6.78,2.26-8.28,4.52-9.79,8.28-1.88,10.92-1.88,7.15-4.52,7.91-5.65,4.89-10.17,6.78-12.8,6.53-.5,8,0,17.07,3,22.09,3,9-6.53,11.55-9.54S350,339,350,332s-2-22.59-1.51-25.85,14.06-11.29,17.57-11.8,7-18.07,9-21.33-.5-12.3,1.25-18.82,16.57-39.41,16.57-39.41,10.29,1.26,18.83,1.76,18.82-16.82,25.35-31.88S438,137.57,438.18,135.88ZM145.94,278.34q-2.87,2.33-8.42,2.33a14.15,14.15,0,0,1-9.08-2.81,4.14,4.14,0,0,1-.11,1.23,1,1,0,0,1-.4.47,1.15,1.15,0,0,1-.65.2,1.2,1.2,0,0,1-.89-.36,1.73,1.73,0,0,1-.39-1.2v-4.82a1.79,1.79,0,0,1,.37-1.2,1.13,1.13,0,0,1,.88-.36,1.19,1.19,0,0,1,.86.35,1.27,1.27,0,0,1,.35.93,3.5,3.5,0,0,0,.64,2.15,7,7,0,0,0,3.11,2.22,13.76,13.76,0,0,0,5.23.88q4.57,0,6.8-1.7t2.23-3.59a3.93,3.93,0,0,0-2.26-3.48,17.21,17.21,0,0,0-6.65-1.76,27,27,0,0,1-6.26-1.17,6.36,6.36,0,0,1-3-2.17,5.18,5.18,0,0,1-1.06-3.12,5.37,5.37,0,0,1,3-4.78,13.47,13.47,0,0,1,7.05-1.77,12.46,12.46,0,0,1,7.89,2.37,1.69,1.69,0,0,1,.33-1.17,1.09,1.09,0,0,1,.84-.36,1.66,1.66,0,0,1,1.08.36,1.81,1.81,0,0,1,.55,1.23v4a1.78,1.78,0,0,1-.55,1.2,1.38,1.38,0,0,1-1,.36,1.24,1.24,0,0,1-.85-.31,1.52,1.52,0,0,1-.4-1,3.75,3.75,0,0,0-1.74-2.76,10.57,10.57,0,0,0-6.05-1.56,10.21,10.21,0,0,0-6.11,1.59,3.35,3.35,0,0,0-1.65,2.67,3.23,3.23,0,0,0,1.95,2.79,14.43,14.43,0,0,0,5.07,1.2,34.5,34.5,0,0,1,6.77,1.2,8.58,8.58,0,0,1,4,2.7,6,6,0,0,1,1.32,3.73A6.75,6.75,0,0,1,145.94,278.34Zm4.21-53.74q-.89.92-4.33,2a22.14,22.14,0,0,1-6.59,1.07,10.63,10.63,0,0,1-6.66-1.92,6.39,6.39,0,0,1-2.57-5.18V205h-4a1.74,1.74,0,0,1-1.2-.34,1.13,1.13,0,0,1-.36-.87c0-.33.12-.42.36-.64s.64-.14,1.2-.14h4v-7.3a1.75,1.75,0,0,1,.48-1.2,1.25,1.25,0,0,1,.91-.36,1.64,1.64,0,0,1,1.07.36,1.77,1.77,0,0,1,.54,1.2V203h12.36c.56,0,1-.08,1.2.14a.93.93,0,0,1,.36.77,1,1,0,0,1-.36.8,1.75,1.75,0,0,1-1.2.3H133v15.56a4.1,4.1,0,0,0,1.46,3.4,7,7,0,0,0,4.69,1.37,20.32,20.32,0,0,0,5.08-.71,17.15,17.15,0,0,0,4.27-1.6,1.8,1.8,0,0,1,.91-.36,1,1,0,0,1,.77.35,1.14,1.14,0,0,1,.33.82A1.1,1.1,0,0,1,150.15,224.6Zm.85-73a1.85,1.85,0,0,1-.55,1.23,1.34,1.34,0,0,1-1,.36,1.44,1.44,0,0,1-1-.36,1.83,1.83,0,0,1-.48-1.23V143h-9v28h5.69a1.81,1.81,0,0,1,1.2.52,1.31,1.31,0,0,1,.36,1,1.51,1.51,0,0,1-.36,1,1.76,1.76,0,0,1-1.2.51H130.17a1.74,1.74,0,0,1-1.2-.46,1.23,1.23,0,0,1-.36-.9,1.64,1.64,0,0,1,.36-1.08,1.82,1.82,0,0,1,1.2-.55H136V143h-9v8.59a1.83,1.83,0,0,1-.49,1.23,1.27,1.27,0,0,1-.94.36,1.57,1.57,0,0,1-1-.36,1.8,1.8,0,0,1-.54-1.23V141h27Zm7.15,62.59a11.74,11.74,0,0,1,3.78-8.75,12.93,12.93,0,0,1,9.35-3.65A12.5,12.5,0,0,1,184.37,215H160.52a11.37,11.37,0,0,0,11.7,10.26,19,19,0,0,0,5.49-.83,14.1,14.1,0,0,0,4.68-2.27,1.57,1.57,0,0,1,.92-.41,1.05,1.05,0,0,1,.78.35,1.15,1.15,0,0,1,.33.82,1.31,1.31,0,0,1-.45.92,12.51,12.51,0,0,1-4.75,2.61,20.8,20.8,0,0,1-7,1.21,13.78,13.78,0,0,1-10-3.94A12.87,12.87,0,0,1,158.15,214.18ZM184.4,277.6q-.89.92-4.33,2a22.14,22.14,0,0,1-6.59,1.07,9.52,9.52,0,0,1-6.29-1.92,6.09,6.09,0,0,1-2.19-5.18V258h-4.79a1.74,1.74,0,0,1-1.2-.34,1.13,1.13,0,0,1-.36-.87c0-.33.12-.42.36-.64s.64-.14,1.2-.14H165v-7.3c0-.56-.12-1,.1-1.2a.86.86,0,0,1,.72-.36,1.11,1.11,0,0,1,.86.36,1.74,1.74,0,0,1,.33,1.2V256h12.61c.56,0,1-.08,1.2.14a.93.93,0,0,1,.36.77,1,1,0,0,1-.36.8,1.76,1.76,0,0,1-1.2.3H167v15.56a4.21,4.21,0,0,0,1.58,3.4,7.19,7.19,0,0,0,4.75,1.37,20.55,20.55,0,0,0,5.12-.71,17.29,17.29,0,0,0,4.29-1.6,1.82,1.82,0,0,1,.92-.36,1,1,0,0,1,.78.35,1.15,1.15,0,0,1,.33.82A1.09,1.09,0,0,1,184.4,277.6Zm1.41-104.06a1.73,1.73,0,0,1-1.21.46H177a1.78,1.78,0,0,1-1.23-.46,1.23,1.23,0,0,1-.36-.9,1.64,1.64,0,0,1,.36-1.08A1.85,1.85,0,0,1,177,171h3V157.05a5.74,5.74,0,0,0-2-4.24,7.44,7.44,0,0,0-5.18-1.7,7.66,7.66,0,0,0-4.42,1.25,30.33,30.33,0,0,0-4.37,4.21V171h2.65a1.81,1.81,0,0,1,1.2.52,1.31,1.31,0,0,1,.36,1,1.51,1.51,0,0,1-.36,1,1.76,1.76,0,0,1-1.2.51H159a1.74,1.74,0,0,1-1.2-.46,1.23,1.23,0,0,1-.36-.9,1.64,1.64,0,0,1,.36-1.08A1.82,1.82,0,0,1,159,171h3V141h-3.49a1.77,1.77,0,0,1-1.2-.26,1,1,0,0,1-.36-.83.83.83,0,0,1,.36-.7c.24-.22.64-.2,1.2-.2H164v14.18a11.12,11.12,0,0,1,8.86-4.4,10.23,10.23,0,0,1,4.64,1,8.17,8.17,0,0,1,3.2,3,7.65,7.65,0,0,1,1.29,4.19V171h2.59a1.78,1.78,0,0,1,1.21.52,1.63,1.63,0,0,1,0,2Zm29.4,103.34a13.19,13.19,0,0,1-18.52,0,12.85,12.85,0,0,1,0-18.28,13.19,13.19,0,0,1,18.52,0,12.85,12.85,0,0,1,0,18.31ZM198.05,194a1.82,1.82,0,0,1-1.21-.26,1,1,0,0,1-.38-.83.83.83,0,0,1,.36-.7c.24-.22.65-.2,1.23-.2H207v32h9.34a1.84,1.84,0,0,1,1.23.52,1.31,1.31,0,0,1,.36,1,1.51,1.51,0,0,1-.36,1,1.8,1.8,0,0,1-1.23.51H195.6a1.74,1.74,0,0,1-1.2-.46,1.23,1.23,0,0,1-.36-.9,1.64,1.64,0,0,1,.36-1.08,1.82,1.82,0,0,1,1.2-.55H205V194Zm17.15-23.13a13.19,13.19,0,0,1-18.52,0,12.85,12.85,0,0,1,0-18.28,13.19,13.19,0,0,1,18.52,0,12.85,12.85,0,0,1,0,18.31Zm38.57,88.57a1.19,1.19,0,0,1-.88.35,1,1,0,0,1-.47-.1,3.87,3.87,0,0,1-.72-.63,7.1,7.1,0,0,0-1.7-1.34,3.17,3.17,0,0,0-1.42-.36,8.5,8.5,0,0,0-3.89,1.23c-1.44.82-3.68,2.81-7.68,6V277h10.77a1.85,1.85,0,0,1,1.23.52,1.31,1.31,0,0,1,.36,1,1.51,1.51,0,0,1-.36,1,1.8,1.8,0,0,1-1.23.51H229.4a1.79,1.79,0,0,1-1.2-.45,1.19,1.19,0,0,1-.36-.89,1.72,1.72,0,0,1,.35-1.07,1.81,1.81,0,0,1,1.21-.6H235V258h-4.26a1.74,1.74,0,0,1-1.2-.34,1.13,1.13,0,0,1-.36-.87c0-.33.12-.42.35-.64s.64-.14,1.21-.14H237v5.52a37.27,37.27,0,0,1,7-5.31,9.55,9.55,0,0,1,4.29-1.18,6.31,6.31,0,0,1,3.94,1.41c1.2.94,1.82,1.65,1.82,2.13A1.17,1.17,0,0,1,253.77,259.44ZM232.3,194a1.82,1.82,0,0,1-1.21-.26,1,1,0,0,1-.38-.83.83.83,0,0,1,.36-.7c.24-.22.65-.2,1.23-.2H241v32h9.58a1.84,1.84,0,0,1,1.23.52,1.31,1.31,0,0,1,.36,1,1.51,1.51,0,0,1-.36,1,1.8,1.8,0,0,1-1.23.51H229.85a1.74,1.74,0,0,1-1.2-.46,1.23,1.23,0,0,1-.36-.9,1.64,1.64,0,0,1,.36-1.08,1.82,1.82,0,0,1,1.2-.55H239V194Zm24.27-20.46a1.74,1.74,0,0,1-1.2.46H251V155.27a4.15,4.15,0,0,0-1.06-3,3.3,3.3,0,0,0-2.49-1.17,4.2,4.2,0,0,0-2.46,1,10.54,10.54,0,0,0-3,3.78V171h1.48a1.81,1.81,0,0,1,1.2.52,1.31,1.31,0,0,1,.36,1,1.51,1.51,0,0,1-.36,1,1.76,1.76,0,0,1-1.2.51H239V155.44a4.36,4.36,0,0,0-1-3.08,3.2,3.2,0,0,0-2.43-1.21,3.75,3.75,0,0,0-2.23.81,10.93,10.93,0,0,0-3.32,3.93V171h1.52a1.81,1.81,0,0,1,1.2.52,1.31,1.31,0,0,1,.36,1,1.51,1.51,0,0,1-.36,1,1.76,1.76,0,0,1-1.2.51h-6.3a1.74,1.74,0,0,1-1.2-.46,1.23,1.23,0,0,1-.36-.9,1.64,1.64,0,0,1,.36-1.08,1.82,1.82,0,0,1,1.2-.55H227V152h-1.77a1.74,1.74,0,0,1-1.2-.34,1.13,1.13,0,0,1-.36-.87c0-.33.12-.42.36-.64s.64-.14,1.2-.14H230v2c2-2.14,3.76-3.2,5.76-3.2a5,5,0,0,1,3.06,1,7.12,7.12,0,0,1,2.23,2.91,12.18,12.18,0,0,1,3.13-2.91,6.16,6.16,0,0,1,3.2-1,4.77,4.77,0,0,1,3.83,1.64A6.42,6.42,0,0,1,253,155v16h2.38a1.81,1.81,0,0,1,1.2.52,1.58,1.58,0,0,1,0,2Zm7.89-12.17q3.12-2.54,9.11-2.54A30.54,30.54,0,0,1,277,159a27.71,27.71,0,0,1,4,.65v-3.79a4.08,4.08,0,0,0-1.69-3.34,8.33,8.33,0,0,0-5.3-1.42,27,27,0,0,0-7.64,1.59,5.26,5.26,0,0,1-1.13.28,1,1,0,0,1-.76-.33,1.16,1.16,0,0,1-.32-.84,1,1,0,0,1,.28-.75,9.57,9.57,0,0,1,3.15-1.14,27.83,27.83,0,0,1,6.58-1.17A10.73,10.73,0,0,1,281.3,151c1.65,1.46,2.7,3.11,2.7,4.95V171h2.67a1.84,1.84,0,0,1,1.23.52,1.31,1.31,0,0,1,.36,1,1.51,1.51,0,0,1-.36,1,1.8,1.8,0,0,1-1.23.51H281v-3.63a15.68,15.68,0,0,1-10.81,4.29,9.36,9.36,0,0,1-6.53-2.13,6.74,6.74,0,0,1-2.35-5.23A7.51,7.51,0,0,1,264.46,161.37Zm16.75,55.17a17.19,17.19,0,0,0-6.65-1.76,26.94,26.94,0,0,1-6.26-1.17,6.35,6.35,0,0,1-3-2.17,5.18,5.18,0,0,1-1.06-3.12,5.37,5.37,0,0,1,3-4.78,13.47,13.47,0,0,1,7.05-1.77,12.45,12.45,0,0,1,7.89,2.37,1.69,1.69,0,0,1,.33-1.17,1.09,1.09,0,0,1,.84-.36,1.67,1.67,0,0,1,1.09.36,1.81,1.81,0,0,1,.56,1.23v4a1.78,1.78,0,0,1-.56,1.2,1.38,1.38,0,0,1-1,.36,1.24,1.24,0,0,1-.85-.31,1.52,1.52,0,0,1-.4-1,3.75,3.75,0,0,0-1.74-2.76,10.56,10.56,0,0,0-6.05-1.56,10.2,10.2,0,0,0-6.11,1.59,3.36,3.36,0,0,0-1.65,2.68,3.23,3.23,0,0,0,1.95,2.79,14.45,14.45,0,0,0,5.07,1.2,34.49,34.49,0,0,1,6.77,1.2,8.57,8.57,0,0,1,4,2.7,6,6,0,0,1,1.32,3.73,6.75,6.75,0,0,1-2.87,5.31q-2.87,2.33-8.42,2.33a14.14,14.14,0,0,1-9.08-2.81,4.13,4.13,0,0,1-.11,1.23,1,1,0,0,1-.4.47,1.15,1.15,0,0,1-.65.2,1.19,1.19,0,0,1-.88-.36,1.73,1.73,0,0,1-.38-1.2v-4.82a1.79,1.79,0,0,1,.37-1.2,1.13,1.13,0,0,1,.87-.36,1.19,1.19,0,0,1,.86.35,1.27,1.27,0,0,1,.35.93,3.5,3.5,0,0,0,.64,2.15,7,7,0,0,0,3.11,2.22,13.75,13.75,0,0,0,5.23.88q4.57,0,6.8-1.7t2.23-3.59A3.93,3.93,0,0,0,281.21,216.54Zm8.67,40.93a1.07,1.07,0,0,1-.5.4,10.19,10.19,0,0,1-1.56,0L273,288h3.65a1.78,1.78,0,0,1,1.2.4,1.17,1.17,0,0,1,.36.89,1.76,1.76,0,0,1-.36,1.11,1.8,1.8,0,0,1-1.2.6H263.15a1.83,1.83,0,0,1-1.2-.57,1.36,1.36,0,0,1-.36-1,1.41,1.41,0,0,1,.36-1,1.79,1.79,0,0,1,1.2-.46h7.33l4.13-8.33L263.74,258H263a1.74,1.74,0,0,1-1.2-.34,1.1,1.1,0,0,1-.36-.84,1.23,1.23,0,0,1,.18-.66c.12-.19.28-.14.47-.22s.5.07.91.07h6.41c.56,0,1-.08,1.2.14a.93.93,0,0,1,.36.77,1,1,0,0,1-.36.8,1.75,1.75,0,0,1-1.2.3H266.3l9.56,19.2,9.42-19.2h-3.15a1.74,1.74,0,0,1-1.2-.34,1.13,1.13,0,0,1-.36-.87c0-.33.12-.42.36-.64s.64-.14,1.2-.14h6.38c.58,0,1-.08,1.23.14a.93.93,0,0,1,.36.77A.85.85,0,0,1,289.88,257.48Zm22,22.22a3.94,3.94,0,0,1-2.66,1.3h-1a3.89,3.89,0,0,1-2.67-1.31,3.84,3.84,0,0,1-1.12-2.77,3.9,3.9,0,0,1,3.79-3.92h1a3.69,3.69,0,0,1,2.68,1.11,4,4,0,0,1,0,5.59Zm5.31-107.37q-2.87,2.33-8.42,2.33a14.14,14.14,0,0,1-9.08-2.81,4.13,4.13,0,0,1-.11,1.23,1,1,0,0,1-.4.47,1.15,1.15,0,0,1-.66.2,1.5,1.5,0,0,1-1-.36,1.76,1.76,0,0,1-.51-1.2v-4.82a1.8,1.8,0,0,1,.49-1.2,1.27,1.27,0,0,1,.94-.36,1.26,1.26,0,0,1,.89.35,1.28,1.28,0,0,1,.37.93,3.5,3.5,0,0,0,.65,2.15,7.06,7.06,0,0,0,3.11,2.22,13.76,13.76,0,0,0,5.23.88q4.57,0,6.8-1.7t2.23-3.59a3.93,3.93,0,0,0-2.26-3.48,17.19,17.19,0,0,0-6.65-1.76,26.94,26.94,0,0,1-6.26-1.17,6.36,6.36,0,0,1-3-2.17,5.19,5.19,0,0,1-1.06-3.12,5.37,5.37,0,0,1,3-4.78,13.47,13.47,0,0,1,7-1.77,12.46,12.46,0,0,1,7.89,2.37,1.69,1.69,0,0,1,.33-1.17,1.09,1.09,0,0,1,.84-.36,1.35,1.35,0,0,1,1,.36,1.78,1.78,0,0,1,.43,1.23v4a1.73,1.73,0,0,1-.43,1.2,1.23,1.23,0,0,1-.91.36,1.16,1.16,0,0,1-.82-.31,1.52,1.52,0,0,1-.39-1,3.74,3.74,0,0,0-1.73-2.76,10.55,10.55,0,0,0-6-1.56,10.2,10.2,0,0,0-6.11,1.59,3.35,3.35,0,0,0-1.64,2.68,3.23,3.23,0,0,0,1.95,2.79,14.46,14.46,0,0,0,5.07,1.2,34.49,34.49,0,0,1,6.77,1.2,8.57,8.57,0,0,1,4,2.7,6,6,0,0,1,1.32,3.73A6.75,6.75,0,0,1,317.19,172.34Zm39.21,54.2a1.78,1.78,0,0,1-1.23.46H350v-3.63c-4,2.86-7.19,4.29-11.06,4.29a9.69,9.69,0,0,1-6.66-2.13,6.8,6.8,0,0,1-2.41-5.23,7.46,7.46,0,0,1,3.1-5.94c2.08-1.69,5.11-2.54,9.1-2.54a34.86,34.86,0,0,1,3.67.21c1.26.14,2.25.36,4.25.65v-3.79a4.38,4.38,0,0,0-1.94-3.34,8.73,8.73,0,0,0-5.43-1.42,27.29,27.29,0,0,0-7.7,1.59,5.39,5.39,0,0,1-1.16.28,1,1,0,0,1-.78-.33,1.17,1.17,0,0,1-.33-.84,1,1,0,0,1,.28-.75,9.55,9.55,0,0,1,3.15-1.14,27.82,27.82,0,0,1,6.58-1.17,10,10,0,0,1,6.89,2.19,6.45,6.45,0,0,1,2.46,4.95V224h3.17a1.84,1.84,0,0,1,1.23.52,1.58,1.58,0,0,1,0,2Z"/><path d="M212,738c-3.21,3.5-11.77,8.22-15.81,8.61-10.17,1-18.82-1.54-23.91-11.37l-1.39-5.82c-.78-16.55,5.66-31,13.5-44.9,6.08-10.74,13.06-21,19.93-31.25,1.76-2.63,3.12-4.9,3.41-8.25.72-8.13,4.53-15.16,9.18-21.76,8.32-11.81,16.56-23.67,24.85-35.51,2-2.79,3.9-5.59,5.94-8.31,1-1.37,1.26-2.28-.41-3.4-2.06-1.39-3.88-3.12-5.83-4.68-3.85-3.09-4.38-6.75-1.32-10.58,8.08-10.13,16.23-20.21,24.35-30.31,1.61-2,3.2-4,4.83-6,3.17-3.91,6.9-4.3,10.83-1.15l12.56,10.06c9.4-12,.56-1.2,10-13.26l-11.27-8.83c-2.69-2.1-5.4-4.15-8.07-6.28-3.1-2.48-3.59-5.85-1.18-9,8.94-11.56,36.06-45.72,45-57.25q8.49-10.91,17-21.81c5.94-7.66,13.6-12,23.4-12.3,7.72-.26,14.21,2.82,20.12,7.39,8.74,6.76,17.39,13.62,26.09,20.42A30.34,30.34,0,0,1,423,443.71a15.2,15.2,0,0,0,1.17,1.83l1.74,7.28a7.45,7.45,0,0,0-.21,1.44c.36,7.93-2.24,14.81-7.13,21-5.37,6.76-10.66,13.59-16,20.4-9.28,11.93-34.52,43.89-43.82,55.8a5.88,5.88,0,0,1-8.41,1.33c-1.18-.78-2.28-1.67-3.39-2.54L330.9,537.7c-9.58,12.24-3,4.28-12.48,16.38,5,4,9.64,7.72,14.27,11.5,3.76,3.07,4,6.89,1,10.63-9.14,11.29-18.21,22.65-27.36,33.93a3.94,3.94,0,0,0-.9,3.83c0,23-2.4,40-2.4,59.93V1985H281L277.93,679.69c0-27.69-1.76-46.69-1.76-78.11l-.78-3.25c-3,3.71-5.57,6.78-8.09,9.86q-12.69,15.52-25.37,31c-5.68,7-12,13.17-20.6,16.4a14.27,14.27,0,0,0-7.13,5.45c-11.5,16.26-22.14,33-28.46,52-1.6,4.83-2.66,9.8-1.86,14.94.59,3.81,2.43,5.64,6.28,5.85a31.53,31.53,0,0,0,8.18-.35C201,733,238,701,292,701c36,0,44,13,44,43,0,23-22,32-50,32s-45,40-41,96,105,208,105,291-127,276-127,492,110,216,142,248,32,82-46,82-60-18-60-18,135,31,102-40c-12.45-26.78-155-44-155-272s127-407,127-490c0-89-100-225-100-292,0-70,20-110,57-110s38-13,38-19,7-34-38-34S215.21,734.5,212,738Z"/><ellipse cx="290" cy="1980" rx="143" ry="26.56"/><path d="M281.26,3250c45,0,38-28,38-34s-1-19-38-19-57-40-57-110c0-67,100-203,100-292,0-83-127-262-127-490s142.55-245.22,155-272c33-71-102-40-102-40s-18-18,60-18,78,50,46,82-142,32-142,248,127,409,127,492-101,235-105,291,13,96,41,96,50,9,50,32c0,30-8,43-44,43-54,0-91-32-93.66-32.56a31.53,31.53,0,0,0-8.18-.35c-3.85.21-5.69,2-6.28,5.85-.8,5.15.26,10.11,1.86,14.94,6.32,19.07,17,35.78,28.46,52a14.27,14.27,0,0,0,7.13,5.45c8.57,3.22,14.92,9.42,20.6,16.4q12.65,15.55,25.37,31c2.52,3.08,5,6.14,8.09,9.86l.78-3.25c0-31.42,1.76-50.42,1.76-78.11L272.26,1975h22V3286.11c0,19.89,2.4,36.89,2.4,59.93a3.94,3.94,0,0,0,.9,3.83c9.16,11.28,18.22,22.64,27.36,33.93,3,3.75,2.79,7.56-1,10.63-4.63,3.78-9.3,7.5-14.27,11.5,9.47,12.1,2.9,4.14,12.48,16.38l16.1-12.53c1.12-.87,2.22-1.76,3.39-2.54a5.88,5.88,0,0,1,8.41,1.33c9.3,11.91,34.54,43.87,43.82,55.8,5.3,6.82,10.59,13.64,16,20.4,4.89,6.16,7.49,13,7.13,21a7.45,7.45,0,0,0,.21,1.44l-1.74,7.28a15.2,15.2,0,0,0-1.17,1.83,30.34,30.34,0,0,1-9.18,11.26c-8.71,6.8-17.36,13.66-26.09,20.42-5.91,4.57-12.4,7.65-20.12,7.39-9.8-.32-17.46-4.64-23.4-12.3q-8.46-10.92-17-21.81c-9-11.53-36.09-45.69-45-57.25-2.41-3.11-1.92-6.49,1.18-9,2.66-2.13,5.38-4.18,8.07-6.28l11.27-8.83c-9.46-12.07-.62-1.28-10-13.26l-12.56,10.06c-3.93,3.14-7.65,2.75-10.83-1.15-1.62-2-3.21-4-4.83-6-8.12-10.1-16.27-20.18-24.35-30.31-3.06-3.84-2.53-7.5,1.32-10.58,1.94-1.56,3.77-3.29,5.83-4.68,1.67-1.13,1.44-2,.41-3.4-2-2.72-4-5.52-5.94-8.31-8.28-11.83-16.52-23.7-24.85-35.51-4.66-6.61-8.47-13.64-9.18-21.76-.3-3.35-1.66-5.62-3.41-8.25-6.87-10.27-13.85-20.51-19.93-31.25-7.84-13.86-14.29-28.35-13.5-44.9l1.39-5.82c5.1-9.83,13.75-12.35,23.91-11.37,4,.39,12.6,5.11,15.81,8.61S236.26,3250,281.26,3250Z"/></svg>