<svg xmlns="http://www.w3.org/2000/svg" viewBox="0 0 512 512"><title>Artboard 1 copy 13</title><g id="Layer_2" data-name="Layer 2"><path d="M408.78,103.22A216.06,216.06,0,0,0,103.22,408.78,216.06,216.06,0,0,0,408.78,103.22ZM256,468.06C139.07,468.06,43.94,372.93,43.94,256S139.07,43.94,256,43.94,468.06,139.07,468.06,256,372.93,468.06,256,468.06Z"/><path d="M245.83,257.13q0,17.3,0,34.61c0,4.72-1.7,6.41-6.41,6.43s-9.19,0-13.79,0c-3.59,0-5.6-2.06-5.6-5.66q0-35.52,0-71c0-3.63,2-5.6,5.6-5.63,4.77,0,9.54,0,14.31,0,3.95,0,5.89,1.94,5.9,5.92q0,17.69,0,35.39Z"/><path d="M292,257q0,17.7,0,35.39c0,3.83-1.89,5.74-5.73,5.76q-7.16,0-14.31,0c-3.82,0-5.73-1.89-5.74-5.77q0-26.54,0-53.09,0-8.59,0-17.18c0-4.46,1.83-6.3,6.31-6.31s9.2,0,13.79,0c3.77,0,5.73,2,5.73,5.79q0,17.7,0,35.39Z"/></g></svg>