<?xml version="1.0" encoding="utf-8"?>
<!-- Generator: Adobe Illustrator 21.0.0, SVG Export Plug-In . SVG Version: 6.00 Build 0)  -->
<svg id="Layer_1" data-name="Layer 1" xmlns="http://www.w3.org/2000/svg" viewBox="0 0 440 3991">
<path d="M155.94,710c-45,0-38,28-38,34s1,19,38,19,57,40,57,110c0,67-100,203-100,292,0,83,127,262,127,490s-142.55,245.22-155,272c-33,71,102,40,102,40s18,18-60,18-78-50-46-82,142-32,142-248-127-409-127-492,101-235,105-291-13-96-41-96-50-9-50-32c0-30,8-43,44-43,54,0,91,32,93.66,32.56a31.53,31.53,0,0,0,8.18.35c3.85-.21,5.69-2,6.28-5.85.8-5.15-.26-10.11-1.86-14.94-6.32-19.07-17-35.78-28.46-52a14.27,14.27,0,0,0-7.13-5.45c-8.57-3.22-14.92-9.42-20.6-16.4q-12.65-15.55-25.37-31c-2.52-3.08-5-6.14-8.09-9.86l-.78,3.25C169.77,633,168,652,168,679.69L164.94,1985h-22V673.89c0-19.89-2.4-36.89-2.4-59.93a3.94,3.94,0,0,0-.9-3.83c-9.16-11.28-18.22-22.64-27.36-33.93-3-3.75-2.79-7.56,1-10.63,4.63-3.78,9.3-7.5,14.27-11.5C118,542,124.61,549.93,115,537.7l-16.1,12.53c-1.12.87-2.22,1.76-3.39,2.54a5.88,5.88,0,0,1-8.41-1.33c-9.3-11.91-34.54-43.87-43.82-55.8-5.3-6.82-10.59-13.64-16-20.4-4.89-6.16-7.49-13-7.13-21a7.45,7.45,0,0,0-.21-1.44l1.74-7.28a15.2,15.2,0,0,0,1.17-1.83,30.34,30.34,0,0,1,9.18-11.26c8.71-6.8,17.36-13.66,26.09-20.42,5.91-4.57,12.4-7.65,20.12-7.39,9.8.32,17.46,4.64,23.4,12.3q8.46,10.92,17,21.81c9,11.53,36.09,45.69,45,57.25,2.41,3.11,1.92,6.49-1.18,9-2.66,2.13-5.38,4.18-8.07,6.28l-11.27,8.83c9.46,12.07.62,1.28,10,13.26l12.56-10.06c3.93-3.14,7.65-2.75,10.83,1.15,1.62,2,3.21,4,4.83,6,8.12,10.1,16.27,20.18,24.35,30.31,3.06,3.84,2.53,7.5-1.32,10.58-1.94,1.56-3.77,3.29-5.83,4.68-1.67,1.13-1.44,2-.41,3.4,2,2.72,4,5.52,5.94,8.31,8.28,11.83,16.52,23.7,24.85,35.51,4.66,6.61,8.47,13.64,9.18,21.76.3,3.35,1.66,5.62,3.41,8.25,6.87,10.27,13.85,20.51,19.93,31.25,7.84,13.86,14.29,28.35,13.5,44.9l-1.39,5.82c-5.1,9.83-13.75,12.35-23.91,11.37-4-.39-12.6-5.11-15.81-8.61S200.94,710,155.94,710Z"/><ellipse cx="155.94" cy="1980" rx="143" ry="26.56"/><path d="M233.94,3222.18c3.21-3.5,11.77-8.22,15.81-8.61,10.17-1,18.82,1.54,23.91,11.37l1.39,5.82c.78,16.55-5.66,31-13.5,44.9-6.08,10.74-13.06,21-19.93,31.25-1.76,2.63-3.12,4.9-3.41,8.25-.72,8.13-4.53,15.16-9.18,21.76-8.32,11.81-16.56,23.67-24.85,35.51-2,2.79-3.9,5.59-5.94,8.31-1,1.37-1.26,2.28.41,3.4,2.06,1.39,3.88,3.12,5.83,4.68,3.85,3.09,4.38,6.75,1.32,10.58-8.08,10.13-16.23,20.21-24.35,30.31-1.61,2-3.2,4-4.83,6-3.17,3.91-6.9,4.3-10.83,1.15l-12.56-10.06c-9.4,12-.56,1.2-10,13.26l11.27,8.83c2.69,2.1,5.4,4.15,8.07,6.28,3.1,2.48,3.59,5.85,1.18,9-8.94,11.56-36.06,45.72-45,57.25q-8.49,10.91-17,21.81c-5.94,7.66-13.6,12-23.4,12.3-7.72.26-14.21-2.82-20.12-7.39-8.74-6.76-17.39-13.62-26.09-20.42a30.34,30.34,0,0,1-9.18-11.26,15.2,15.2,0,0,0-1.17-1.83L20,3507.36a7.45,7.45,0,0,0,.21-1.44c-.36-7.93,2.24-14.81,7.13-21,5.37-6.76,10.66-13.59,16-20.4,9.28-11.93,34.52-43.89,43.82-55.8a5.88,5.88,0,0,1,8.41-1.33c1.18.78,2.28,1.67,3.39,2.54l16.1,12.53c9.58-12.24,3-4.28,12.48-16.38-5-4-9.64-7.72-14.27-11.5-3.76-3.07-4-6.89-1-10.63,9.14-11.29,18.21-22.65,27.36-33.93a3.94,3.94,0,0,0,.9-3.83c0-23,2.4-40,2.4-59.93V1975.18h22L168,3280.49c0,27.69,1.76,46.69,1.76,78.11l.78,3.25c3-3.71,5.57-6.78,8.09-9.86q12.69-15.52,25.37-31c5.68-7,12-13.17,20.6-16.4a14.27,14.27,0,0,0,7.13-5.45c11.5-16.26,22.14-33,28.46-52,1.6-4.83,2.66-9.8,1.86-14.94-.59-3.81-2.43-5.64-6.28-5.85a31.53,31.53,0,0,0-8.18.35c-2.66.56-39.66,32.56-93.66,32.56-36,0-44-13-44-43,0-23,22-32,50-32s45-40,41-96-105-208-105-291,127-276,127-492-110-216-142-248-32-82,46-82,60,18,60,18-135-31-102,40c12.45,26.78,155,44,155,272s-127,407-127,490c0,89,100,225,100,292,0,70-20,110-57,110s-38,13-38,19-7,34,38,34S230.73,3225.68,233.94,3222.18Z"/><ellipse cx="155.94" cy="1980.18" rx="143" ry="26.56"/>
</svg>