<?xml version="1.0" encoding="utf-8"?>
<!-- Generator: Adobe Illustrator 23.0.3, SVG Export Plug-In . SVG Version: 6.00 Build 0)  -->
<svg version="1.1" id="Layer_1" xmlns="http://www.w3.org/2000/svg" xmlns:xlink="http://www.w3.org/1999/xlink" x="0px" y="0px"
	 viewBox="0 0 440 3991" style="enable-background:new 0 0 440 3991;" xml:space="preserve">
<path d="M20.2,3505.8c0,0.5-0.1,1-0.2,1.4l1.7,7.3c0.4,0.6,0.8,1.2,1.2,1.8c2.1,4.4,5.3,8.3,9.2,11.3c8.7,6.8,17.4,13.7,26.1,20.4
	c5.9,4.6,12.4,7.6,20.1,7.4c9.8-0.3,17.5-4.6,23.4-12.3c5.6-7.3,11.3-14.6,17-21.8c9-11.5,36.1-45.7,45-57.3c2.4-3.1,1.9-6.5-1.2-9
	c-2.7-2.1-5.4-4.2-8.1-6.3l-11.3-8.8c9.5-12.1,0.6-1.3,10-13.3l12.6,10.1c3.9,3.1,7.6,2.8,10.8-1.1c1.6-2,3.2-4,4.8-6
	c8.1-10.1,16.3-20.2,24.3-30.3c3.1-3.8,2.5-7.5-1.3-10.6c-1.9-1.6-3.8-3.3-5.8-4.7c-1.7-1.1-1.4-2-0.4-3.4c2-2.7,4-5.5,5.9-8.3
	c8.3-11.8,16.5-23.7,24.9-35.5c4.7-6.6,8.5-13.6,9.2-21.8c0.3-3.4,1.7-5.6,3.4-8.3c6.9-10.3,13.9-20.5,19.9-31.3
	c7.8-13.9,14.3-28.4,13.5-44.9l-1.4-5.8c-5.1-9.8-13.8-12.4-23.9-11.4c-4,0.4-12.6,5.1-15.8,8.6c-2.9,3.2-27.7,23.6-66,27.4
	l-0.1-53.9c29.4-7.9,45.1-46.4,45.1-108.5c0-31.6-22.2-78.5-45.7-128.5l-0.8-328.4c34.7-88.1,73.5-199.1,73.5-325.1
	c0-121.7-36.6-182.4-74.7-217.1l-0.3-112.9h0l0.2-102c36.9-35.1,72.7-95.6,74.6-208.2c0-0.9,0-1.8,0-2.7c0-0.9,0-1.8,0-2.7
	c0-0.2,0-0.3,0-0.5c0-1.3,0-2.5,0-3.8c0-1,0-2,0-2.9c-0.6-124.8-39-234.7-73.5-322.2l0.8-328.4c23.5-50.1,45.7-97,45.7-128.5
	c0-62.1-15.7-100.6-45.1-108.5l0.1-53.9c38.2,3.7,63.1,24.2,66,27.4c3.2,3.5,11.8,8.2,15.8,8.6c10.2,1,18.8-1.5,23.9-11.4l1.4-5.8
	c0.8-16.5-5.7-31-13.5-44.9c-6.1-10.7-13.1-21-19.9-31.3c-1.8-2.6-3.1-4.9-3.4-8.3c-0.7-8.1-4.5-15.2-9.2-21.8
	c-8.3-11.8-16.6-23.7-24.9-35.5c-2-2.8-3.9-5.6-5.9-8.3c-1-1.4-1.3-2.3,0.4-3.4c2.1-1.4,3.9-3.1,5.8-4.7c3.9-3.1,4.4-6.8,1.3-10.6
	c-8.1-10.1-16.2-20.2-24.3-30.3c-1.6-2-3.2-4-4.8-6c-3.2-3.9-6.9-4.3-10.8-1.1l-12.6,10.1c-9.4-12-0.6-1.2-10-13.3l11.3-8.8
	c2.7-2.1,5.4-4.1,8.1-6.3c3.1-2.5,3.6-5.9,1.2-9c-8.9-11.6-36.1-45.7-45-57.3c-5.7-7.3-11.3-14.5-17-21.8
	c-5.9-7.7-13.6-12-23.4-12.3c-7.7-0.3-14.2,2.8-20.1,7.4c-8.7,6.8-17.4,13.6-26.1,20.4c-3.9,2.9-7.1,6.8-9.2,11.3
	c-0.3,0.6-0.7,1.3-1.2,1.8l-1.7,7.3c0.1,0.5,0.2,0.9,0.2,1.4c-0.4,7.9,2.2,14.8,7.1,21c5.4,6.8,10.7,13.6,16,20.4
	c9.3,11.9,34.5,43.9,43.8,55.8c1.8,2.7,5.5,3.3,8.2,1.5c0.1-0.1,0.2-0.1,0.2-0.2c1.2-0.8,2.3-1.7,3.4-2.5l16-12.6
	c9.6,12.2,3,4.3,12.5,16.4c-5,4-9.6,7.7-14.3,11.5c-3.8,3.1-4,6.9-1,10.6c9.1,11.3,18.2,22.6,27.4,33.9c1,1,1.3,2.5,0.9,3.8
	c0,23,2.4,40,2.4,59.9v27.6c-26.7,2.6-33,15.9-33,42.5c0,18.1,13.6,27.5,33,30.7v241.4c-24.3,52.8-47,107.6-47,146.9
	c0,34.2,21.6,87.1,47,152.7v551.8c-27.2,20.6-53,27.4-62,35.5c-21.1,19.1-35.9,37.2-38.2,65.6c0,0.1,0,0.1,0,0.2
	c-0.2,2.5-0.3,5.1-0.3,7.8c0,0.5,0,1,0,1.5v0.4c0,3.4,0.1,6.6,0.3,9.8c0,0,0,0.1,0,0.1c1.6,25.9,9.7,43.3,38.2,68.5
	c10.3,9.1,35.5,16,62,35.5v551.7c-25.4,65.6-47,118.5-47,152.8c0,39.3,22.7,94.2,47,147v241.3c-19.4,3.2-33,12.6-33,30.7
	c0,26.7,6.3,39.9,33,42.5v27.6c0,19.9-2.4,36.9-2.4,59.9c0.4,1.3,0.1,2.8-0.9,3.8c-9.2,11.3-18.2,22.6-27.4,33.9
	c-3,3.8-2.8,7.6,1,10.6c4.6,3.8,9.3,7.5,14.3,11.5c-9.5,12.1-2.9,4.1-12.5,16.4l-16.1-12.5c-1.1-0.9-2.2-1.8-3.4-2.5
	c-2.6-2-6.3-1.5-8.2,1.1c-0.1,0.1-0.1,0.1-0.2,0.2c-9.3,11.9-34.5,43.9-43.8,55.8c-5.3,6.8-10.6,13.6-16,20.4
	C22.4,3490.9,19.8,3497.8,20.2,3505.8z M142.8,762.3c-24.2-2.7-25-13.2-25-18.3c0-5.3-5.5-28.1,25-33.1V762.3z M142.8,1270.8
	c-17.3-43.8-30-79.6-30-105.8c0-32.3,13.2-70.8,30-110V1270.8z M167.9,701.7l0-22c0-27.7,1.8-46.7,1.8-78.1l0.8-3.3
	c3,3.7,5.6,6.8,8.1,9.9c8.5,10.4,16.9,20.7,25.4,31c5.7,7,12,13.2,20.6,16.4c2.9,1,5.4,2.9,7.1,5.4c11.5,16.3,22.1,33,28.5,52
	c1.6,4.8,2.7,9.8,1.9,14.9c-0.6,3.8-2.4,5.6-6.3,5.9c-2.7,0.2-5.5,0.1-8.2-0.4C245.1,733,214.2,706.4,167.9,701.7z M167.2,963.8
	l0.4-186.7c23.3,6.8,36.8,44.3,33.2,94.9C199.4,892.5,185,925.8,167.2,963.8z M167.9,3258.3c46.3-4.7,77.2-31.3,79.6-31.8
	c2.7-0.5,5.5-0.6,8.2-0.3c3.8,0.2,5.7,2,6.3,5.8c0.8,5.2-0.3,10.1-1.9,14.9c-6.3,19.1-17,35.8-28.5,52c-1.7,2.5-4.2,4.4-7.1,5.4
	c-8.6,3.2-14.9,9.4-20.6,16.4c-8.4,10.4-16.9,20.7-25.4,31c-2.5,3.1-5,6.1-8.1,9.9l-0.8-3.3c0-31.4-1.8-50.4-1.8-78.1L167.9,3258.3z
	 M167.3,2996.2c17.7,38.1,32.1,71.4,33.6,91.8c3.6,50.6-9.9,88.1-33.2,94.9L167.3,2996.2z M165.2,2112.3
	c30.8,32.8,57.7,89,57.7,192.7c0,100.1-27.3,195.3-56.6,276.9L165.2,2112.3z M142.9,3197.6v51.4c-30.6-4.9-25-27.7-25-33.1
	C117.9,3210.8,118.6,3200.3,142.9,3197.6z M142.9,2689.1V2905c-16.8-39.2-30-77.7-30-110C112.9,2768.8,125.5,2733,142.9,2689.1z
	 M142.8,1886.9v98.1h0.1v85.3c-25.4-17.6-48.4-26.4-58-37.3c-0.2-0.2-0.3-0.3-0.4-0.5l0-0.1c-4.5-5.2-8.1-10.2-11-15.3l0,0
	c-6.6-11.7-9.2-23.7-9.8-38.6v0c-0.1-1.2-0.1-2.3-0.1-3.5c-0.4-17.6-1-21.8,9.9-35.1c0,0,0,0,0,0v0c3-5.3,6.7-10.5,11.5-15.8
	C94.5,1913.2,117.4,1904.4,142.8,1886.9z M222.8,1655c0,1.3,0,2.6,0,3.9v0.4c0,0.9,0,1.8,0,2.7c-1.2,97.8-27.6,152.6-57.6,185.2
	l0-2.5l1.1-466.6C195.6,1459.7,222.8,1554.9,222.8,1655z"/>
<path d="M42.3,1980.5c0,2.7,0.1,5.3,0.3,7.8c0,0,0,0.1,0,0.1c2.3,28.4,17.1,46.5,38.2,65.6l3.6-21.6l0-0.1l-11-15.3l0,0
	c-11-13.3-10.3-17.5-10-35.1c0-1.2,0.1-2.4,0.1-3.5v0c0.6-14.9,3.2-26.9,9.8-38.6c0,0,0,0,0,0v0c3-5.3,6.7-10.5,11.5-15.8
	c9.6-10.9,32.6-19.6,57.9-37.2c7.3-5.1,14.8-10.9,22.3-17.7c36.8-33.5,72.2-91.2,74.6-204.4c0-0.9,0-1.8,0-2.7c0-0.9,0-1.8,0-2.7
	c0-0.2,0-0.3,0-0.5c0-2.2,0-4.5,0-6.8h-17c0,2.3,0,4.6-0.1,6.9v0.4c0,0.9,0,1.8,0,2.7c-1.2,97.8-27.6,152.6-57.6,185.2l0-2.5
	c-7.3,7.8-14.9,14.3-22.4,19.8v2.9c-27.2,20.6-53,27.4-62,35.5c-21.1,19.1-35.9,37.2-38.2,65.6c0,0.1,0,0.1,0,0.2
	c-0.2,3-0.3,6.1-0.3,9.4v0.4C42.3,1979.2,42.3,1979.8,42.3,1980.5z"/>
</svg>
