<?xml version="1.0" encoding="utf-8"?>
<!-- Generator: Adobe Illustrator 24.2.3, SVG Export Plug-In . SVG Version: 6.00 Build 0)  -->
<svg version="1.1" id="Layer_1" xmlns="http://www.w3.org/2000/svg" xmlns:xlink="http://www.w3.org/1999/xlink" x="0px" y="0px"
	 viewBox="0 0 500 100" style="enable-background:new 0 0 500 100;" xml:space="preserve">
<path d="M51.66,40.16l-0.48-3.07l-0.68-2.86c-0.18-0.36-0.39-0.75-0.61-1.16c-0.23-0.41-0.48-0.84-0.75-1.3l-1.57-2.38l-2.38-1.7
	l-2.45-1.5l-3.13-0.75c-1.05-0.23-2.25-0.34-3.61-0.34l0.14,40.81c0,1.09,0.04,1.86,0.14,2.32l0.89,1.7l1.43,0.48l1.84,0.14v2.25
	H18.48l0.07-2.32l2.25-0.2c0.5-0.18,1-0.57,1.5-1.16l0.34-1.5l0.14-1.64l0.07-40.95c-1.82,0.14-2.93,0.3-3.34,0.48
	c-0.45,0.05-0.8,0.08-1.02,0.1c-0.23,0.02-0.41,0.06-0.54,0.1c-0.14,0.05-0.25,0.08-0.34,0.1c-0.09,0.02-0.2,0.06-0.34,0.1
	c-0.18,0.05-0.34,0.09-0.48,0.14c-0.14,0.05-0.25,0.09-0.34,0.14l-3,1.84l-1.77,1.36l-1.64,2.32L8.6,34.23l-0.75,3L7.51,40.3
	L3.9,22.17l3,0.55l2.86,0.2l42.51-0.2l2.86-0.55L51.66,40.16z"/>
<path d="M96.97,60.12l-0.95,3.34l-2.11,4.22l-2.04,3l-7.56,6.68c-0.54,0.68-1.09,1.47-1.64,2.38l-0.75,1.63l-0.2,2.45
	c-0.05,0.18,0,0.68,0.14,1.5l0.27,1.57l-2.04-2.52l-1.36-2.45l-0.2-2.59l0.2-2.52l0.89-2.66c0.09-0.32,0.23-0.66,0.41-1.02
	c0.18-0.36,0.43-0.79,0.75-1.29l2.93-5.04l2.66-5.18l0.82-3.34l0.34-1.7l-0.48-2.52c-0.18-0.5-0.34-0.95-0.48-1.36
	c-0.14-0.41-0.3-0.79-0.48-1.16c-0.95-1.09-1.75-1.91-2.38-2.45l-2.93-2.45l-8.18,2.73v16.62l0.2,1.91l0.34,1.23l0.61,0.75
	l0.82,0.41l2.45,0.2l-0.07,2.32H56.5v-2.25h1.43l1.84-0.61l0.75-1.5l0.41-2.52l-0.14-36.52l-0.41-1.36l-1.5-1.16l-2.32-0.27
	l2.59-1.64l2.66-1.23l3.2-1.02l2.79-0.82l4.84-0.75l-0.07,25.14l13.63-7.15l3.07,1.5l2.38,1.43l1.98,2.11l1.43,1.98l0.95,2.18
	l0.82,2.38l0.27,2.52l0.2,2.66L96.97,60.12z"/>
<path d="M136,62.78l-1.5,2.04l-2.04,1.91l-2.32,1.77l-2.59,1.5l-2.59,1.16l-2.73,0.82l-2.93,0.61l-1.91,0.07h-3.07
	c-0.23-0.04-0.84-0.18-1.84-0.41c-0.23-0.04-0.48-0.11-0.75-0.2c-0.27-0.09-0.52-0.18-0.75-0.27l-2.59-1.02l-2.32-1.63l-2.04-2.04
	l-1.57-2.66l-1.57-3.07l-0.95-3.95c-0.14-0.54-0.2-1.57-0.2-3.07l0.61-3.41l0.75-2.45l1.5-2.66l1.57-1.98l2.32-1.91l2.11-1.29
	l2.93-1.09l3.2-0.95l2.45-0.2l2.18-0.07h1.09l2.59,0.41l3,0.75l2.66,1.29l2.32,1.29l1.77,1.84l1.91,2.38l-1.09,1.36l-1.57,1.5
	l-1.64,1.43l-2.25,1.7l-4.7,2.93l-5.72,3l-6.06,2.45l1.09,1.36l1.5,1.16l1.7,0.68l2.32,0.54h4.7l3.13-0.68l2.86-1.02l3.27-1.7
	l3.34-1.84l1.98,1.09L136,62.78z M123.4,46.9l-0.54-0.82l-2.18-2.25l-2.11-1.09l-2.38-1.02h-1.23l-1.02-0.07l-2.86,0.41l-1.02,0.89
	l-0.82,1.02l-0.68,1.7l-0.48,1.77v4.63l0.75,2.59l0.95,2.59l5.04-1.57l2.18-1.02l2.18-1.29l1.5-1.23l1.36-1.29l0.89-1.3l0.61-1.29
	C123.54,47.72,123.49,47.27,123.4,46.9z"/>
<path d="M216.25,50.31l-0.61,3.34l-1.98,5.18l-1.64,2.79l-1.29,1.84l-2.32,2.52l-2.38,2.04l-1.98,1.23l-2.86,1.29l-4.43,1.3
	l-3.27,0.75l-3.34,0.07h-3.68l-2.66-0.48l-3.41-0.95l-2.45-1.02l-2.93-1.7l-2.32-2.04l-1.98-1.91l-1.57-1.98l-1.7-2.66l-1.91-4.22
	l-0.82-3.07l-0.41-2.45v-1.91l-0.07-1.84v-1.98l0.61-3.13l0.68-2.45l1.36-2.93l1.36-2.32l2.25-2.73l2.04-1.98l2.59-1.91l3.13-1.91
	l-1.5,3.82l-1.02,3.47l-0.75,3.48l-0.27,3.54v3.41l0.48,3.2l1.23,3.88l1.09,2.59l1.91,2.79l1.77,1.98l2.25,1.84l3.13,1.84l2.93,1.23
	l3.95,1.09h3.95l2.86-0.48l3.07-1.36c0.59-0.18,1.36-0.64,2.32-1.36l2.25-2.32l1.64-2.11l1.36-2.73l0.82-2.52l0.41-3.2l0.07-3.2
	l-0.61-2.38l-0.95-2.93l-1.43-1.98c-0.41-0.59-1.07-1.34-1.98-2.25l-2.25-1.23c-0.09-0.09-0.4-0.25-0.92-0.48
	c-0.52-0.23-1.26-0.52-2.21-0.89l-2.45-0.27l-2.25-0.07h-2.59c-0.27,0.05-0.65,0.13-1.12,0.24c-0.48,0.11-1.03,0.28-1.67,0.51
	l-2.11,1.02l-1.02,1.29l-0.75,1.84l0.34,1.5l0.95,1.16l2.11,0.48l1.77-0.14l-1.5,1.16l-1.7,0.88l-2.25,0.27l-2.04-0.2l-2.25-0.88
	c-0.59-0.18-1.27-0.64-2.04-1.36c-1.05-1.32-1.66-2.23-1.84-2.73l-0.95-2.38v-3.27l0.41-2.52l1.64-2.52
	c0.09-0.14,0.32-0.4,0.68-0.78c0.36-0.39,0.86-0.9,1.5-1.53l3.27-1.57l3.88-1.36l7.09,0.2l5.04,1.43c0.04,0,0.7,0.25,1.98,0.75
	l2.59,1.57l2.11,1.57l2.04,2.25l1.5,1.84l2.93,5.93l0.61,2.11l0.61,3.2l0.2,5.52L216.25,50.31z"/>
<path d="M248,72.79c-1.59-0.54-2.54-0.95-2.86-1.23c-0.55-0.41-1.16-1.25-1.84-2.52l-3.88,1.57l-3.95,1.36l-2.93,0.48l-2.73,0.14
	c-0.41,0-1.25-0.11-2.52-0.34l-2.25-0.61l-1.7-0.89l-1.63-1.23l-1.84-2.59l-0.41-1.43l-0.27-1.5l0.2-1.64
	c0.04-0.27,0.1-0.62,0.17-1.06c0.07-0.43,0.19-0.94,0.38-1.53l1.02-1.64l1.16-1.7l1.91-1.64l1.91-1.36l2.11-0.95l2.86-1.09
	l2.52-0.48l3-0.48l6.95,0.14l-0.07-4.29c-0.09-0.64-0.18-1.16-0.27-1.57c-0.09-0.41-0.18-0.7-0.27-0.89L241.73,42l-1.77-0.75
	l-1.84-0.27l-1.98,0.41l-1.77,0.68l-1.29,1.23l-0.82,1.02l-1.77,1.7l-1.84,1.29l-1.91,0.2l-1.91-0.2l-1.7-1.16l-1.43-1.7l-0.89-2.86
	l-0.41-3.2l1.91,1.02l2.18,0.61l2.18-0.07c0.45,0,1.16-0.16,2.11-0.48l2.25-0.68l3-0.75l5.38-0.34l2.79,0.34
	c0.73,0,1.7,0.16,2.93,0.48l2.32,0.89c0.18,0.09,0.48,0.24,0.89,0.44c0.41,0.2,0.93,0.49,1.57,0.85l1.57,1.7l1.36,1.64l0.68,2.86
	c0.14,0.64,0.2,1.43,0.2,2.38l-0.07,16.69l0.34,2.18l0.82,2.04l1.5,1.5l1.84,1.02L248,72.79z M240.92,53.85l-4.36,0.61l-2.52,1.16
	l-1.7,1.09l-1.02,1.36l-0.89,1.84v2.04l0.41,1.57l1.09,1.5l1.36,1.09l1.84,0.68l2.38,0.34l2.45-0.27l3.34-1.02l0.07-11.99H240.92z"
	/>
<path d="M334.66,50.31l-0.61,3.34l-1.98,5.18l-1.63,2.79l-1.3,1.84l-2.32,2.52l-2.38,2.04l-1.97,1.23l-2.86,1.29l-4.43,1.3
	l-3.27,0.75l-3.34,0.07h-3.68l-2.66-0.48l-3.41-0.95l-2.45-1.02l-2.93-1.7l-2.32-2.04l-1.98-1.91l-1.57-1.98l-1.7-2.66l-1.91-4.22
	l-0.82-3.07l-0.41-2.45v-1.91l-0.07-1.84v-1.98l0.61-3.13l0.68-2.45l1.36-2.93l1.36-2.32l2.25-2.73l2.04-1.98l2.59-1.91l3.13-1.91
	l-1.5,3.82l-1.02,3.47l-0.75,3.48l-0.27,3.54v3.41l0.48,3.2l1.23,3.88l1.09,2.59l1.91,2.79l1.77,1.98l2.25,1.84l3.13,1.84l2.93,1.23
	l3.95,1.09h3.95l2.86-0.48l3.07-1.36c0.59-0.18,1.36-0.64,2.32-1.36l2.25-2.32l1.64-2.11l1.36-2.73l0.82-2.52l0.41-3.2l0.07-3.2
	l-0.61-2.38l-0.95-2.93l-1.43-1.98c-0.41-0.59-1.07-1.34-1.98-2.25l-2.25-1.23c-0.09-0.09-0.4-0.25-0.92-0.48
	c-0.52-0.23-1.26-0.52-2.21-0.89l-2.45-0.27l-2.25-0.07H313c-0.27,0.05-0.65,0.13-1.12,0.24c-0.48,0.11-1.03,0.28-1.67,0.51
	l-2.11,1.02l-1.02,1.29l-0.75,1.84l0.34,1.5l0.95,1.16l2.11,0.48l1.77-0.14l-1.5,1.16l-1.7,0.88l-2.25,0.27l-2.04-0.2l-2.25-0.88
	c-0.59-0.18-1.27-0.64-2.04-1.36c-1.04-1.32-1.66-2.23-1.84-2.73l-0.95-2.38v-3.27l0.41-2.52l1.64-2.52
	c0.09-0.14,0.32-0.4,0.68-0.78c0.36-0.39,0.86-0.9,1.5-1.53l3.27-1.57l3.88-1.36l7.09,0.2l5.04,1.43c0.04,0,0.7,0.25,1.98,0.75
	l2.59,1.57l2.11,1.57l2.04,2.25l1.5,1.84l2.93,5.93l0.61,2.11l0.61,3.2l0.21,5.52L334.66,50.31z"/>
<path d="M357.96,72.79h-20.44v-2.25h1.43l1.84-0.61l0.75-1.5l0.41-2.52l-0.14-36.52l-0.41-1.36l-1.5-1.16l-2.32-0.27l2.59-1.7
	l2.66-1.29l6-1.77l4.84-0.95l0.48,48.24l0.61,0.75l0.82,0.41l2.45,0.2L357.96,72.79z"/>
<path d="M380.92,72.79h-20.44v-2.25h1.43l1.84-0.61l0.75-1.5l0.41-2.52l-0.14-19.89l-0.41-1.36l-1.5-1.16l-2.32-0.27l2.52-1.5
	l2.73-1.36l6-1.98l4.84-0.82l0.14,30.32l0.34,1.23l0.61,0.75l0.82,0.41l2.45,0.2L380.92,72.79z M376.29,30.15l-1.09,2.11l-2.04,1.3
	l-2.45,0.61l-2.52-0.61l-1.91-1.3l-1.02-1.91l-0.48-2.25l0.41-2.11l1.09-1.98l1.84-1.23l2.59-0.75c0.64,0.18,1.16,0.33,1.57,0.44
	c0.41,0.11,0.7,0.22,0.89,0.31l2.04,1.23c0.27,0.5,0.5,0.95,0.68,1.36c0.18,0.41,0.32,0.73,0.41,0.95l0.41,1.77L376.29,30.15z"/>
<path d="M418.46,77.43l-0.82,2.04l-2.25,1.91l-2.52,1.57l-3.61,0.82c-1.32,0.32-3.13,0.48-5.45,0.48l-2.45,0.89l-1.84,1.43
	l-0.95,2.25c-0.14,0.5-0.2,1.36-0.2,2.59l-7.22-4.02c0.55-1.55,1.02-2.57,1.43-3.07l1.64-1.5l2.52-0.82
	c0.23-0.05,0.7-0.09,1.43-0.14c0.73-0.05,1.68-0.11,2.86-0.2l3.54-0.27l2.59-0.61l1.57-0.95l0.41-1.02
	c-0.14-0.32-0.41-0.66-0.82-1.02l-1.91-0.89l-1.84-0.48l-1.77-0.2l-4.84-0.27L391.28,76c-1.5-0.23-2.43-0.39-2.79-0.48
	c-0.5-0.18-1.29-0.52-2.38-1.02l-1.43-1.43l-1.09-1.77l-0.14-1.84l0.14-1.84l1.16-1.91l1.43-1.5l2.45-1.09l2.73-0.61l-1.7-1.23
	l-1.7-1.98l-0.89-2.32l-0.75-2.79l0.07-2.66c0-0.77,0.16-1.66,0.48-2.66l1.43-2.86l1.7-2.38l3.07-1.98l3.27-1.5l-0.95-2.79
	l-0.48-2.59l0.34-2.32c0.04-0.23,0.12-0.5,0.24-0.82c0.11-0.32,0.28-0.7,0.51-1.16l1.43-1.02l1.91-0.95l2.73,0.07c1,0,2,0.16,3,0.48
	c0.73,0.64,1.2,1.11,1.43,1.43l0.95,1.57l-0.07,1.64l-0.75,1.5l-1.43,0.75l-2.45,0.48L400.75,36c-0.23,0-0.84,0.18-1.84,0.54
	l-0.34,1.23c0,0.36,0.25,0.86,0.75,1.5L401.5,39c1.09-0.14,1.95-0.2,2.59-0.2l2.11,0.27l2.25,0.54l3.47,2.11l1.43,1.84l1.09,1.77
	l0.55,2.52l0.41,2.52l-0.34,2.25l-0.68,2.52l-1.09,1.84l-1.3,1.7l-1.91,1.63l-1.91,1.36l-1.5,0.61l-3.13,1.16l-4.63,0.41l-2.66-0.34
	l-2.45-0.61l-0.95,1.16l-0.07,1.23l0.95,1.16l1.64,0.61l5.79-0.41l7.02-0.34l3.13,0.48l3.13,1.02l1.64,1.36l1.57,1.84l0.75,1.91
	l0.48,2.32L418.46,77.43z M406.4,53.45l-0.07-2.04v-2.52l-0.75-2.38c-0.14-0.82-0.5-1.7-1.09-2.66l-1.91-1.36l-2.04-0.61
	c-0.82,0.23-1.48,0.43-1.98,0.61l-1.91,1.36l-1.16,2.32l-0.82,2.73v5.45l0.82,2.79l1.16,2.18l1.91,1.36l2.04,0.68
	c1.04-0.18,1.7-0.36,1.98-0.55l1.98-1.5l1.02-2.59l0.82-2.38V53.45z"/>
<path d="M457.57,62.78l-1.5,2.04l-2.04,1.91l-2.32,1.77l-2.59,1.5l-2.59,1.16l-2.73,0.82l-2.93,0.61l-1.91,0.07h-3.07
	c-0.23-0.04-0.84-0.18-1.84-0.41c-0.23-0.04-0.48-0.11-0.75-0.2c-0.27-0.09-0.52-0.18-0.75-0.27l-2.59-1.02l-2.32-1.63l-2.04-2.04
	l-1.57-2.66l-1.57-3.07l-0.95-3.95c-0.14-0.54-0.21-1.57-0.21-3.07l0.61-3.41l0.75-2.45l1.5-2.66l1.57-1.98l2.32-1.91l2.11-1.29
	l2.93-1.09l3.2-0.95l2.45-0.2l2.18-0.07h1.09l2.59,0.41l3,0.75l2.66,1.29l2.32,1.29l1.77,1.84l1.91,2.38l-1.09,1.36l-1.57,1.5
	l-1.64,1.43l-2.25,1.7l-4.7,2.93l-5.72,3l-6.06,2.45l1.09,1.36l1.5,1.16l1.7,0.68l2.32,0.54h4.7l3.13-0.68l2.86-1.02l3.27-1.7
	l3.34-1.84l1.98,1.09L457.57,62.78z M444.96,46.9l-0.55-0.82l-2.18-2.25l-2.11-1.09l-2.38-1.02h-1.23l-1.02-0.07l-2.86,0.41
	l-1.02,0.89l-0.82,1.02l-0.68,1.7l-0.48,1.77v4.63l0.75,2.59l0.95,2.59l5.04-1.57l2.18-1.02l2.18-1.29l1.5-1.23l1.36-1.29l0.89-1.3
	l0.61-1.29C445.1,47.72,445.05,47.27,444.96,46.9z"/>
<path d="M495.72,45.61c-0.09,0.41-0.18,0.7-0.27,0.89l-0.89,1.77l-1.57,0.89l-1.63,0.34l-1.7-0.27l-1.7-0.75l-2.59-2.11
	c-0.41-0.36-1.27-0.79-2.59-1.3c-1.5,0-3.16,0.39-4.97,1.16l-0.07,19.76l0.2,1.91l0.34,1.23l0.61,0.75l0.82,0.41l2.45,0.2
	l-0.07,2.32h-20.44v-2.25h1.43l1.84-0.61l0.75-1.5l0.41-2.52l-0.14-18.26l-0.41-1.43c-0.36-0.5-0.86-0.89-1.5-1.16L461.72,45
	l2.59-1.63l2.66-1.43l2.73-0.95l3.27-1.02l4.84-0.89l-0.07,4.22l2.93-1.7l3.07-1.57l2.25-0.61l2.66-0.61l3.47,0.34l1.5,0.89
	l1.09,1.02l0.54,1.09l0.75,1.91C495.9,44.68,495.81,45.2,495.72,45.61z"/>
</svg>
