<?xml version="1.0" encoding="utf-8"?>
<!-- Generator: Adobe Illustrator 21.0.0, SVG Export Plug-In . SVG Version: 6.00 Build 0)  -->
<svg version="1.1" xmlns="http://www.w3.org/2000/svg" xmlns:xlink="http://www.w3.org/1999/xlink" x="0px" y="0px"
	 viewBox="0 0 512 512" style="enable-background:new 0 0 512 512;" xml:space="preserve">

	<g>
		<path d="M270.2,172.3c2,0,3.8-0.4,5.6-1.2c1.7-0.8,3.3-2.1,5.3-3.9v-5.2c-1-0.3-2.2-0.5-3.4-0.7c-1.2-0.1-2.5-0.2-3.8-0.2
			c-3.4,0-6,0.7-7.9,2.2c-1.4,1.1-2.2,2.4-2.2,3.9c0,1.4,0.6,2.6,1.7,3.6S268.1,172.3,270.2,172.3z"/>
		<path d="M205.9,151.1c-3,0-5.5,1-7.6,3.1c-2.1,2.1-3.1,4.6-3.1,7.5c0,2.9,1,5.4,3.1,7.5c2.1,2.1,4.6,3.1,7.6,3.1
			c3,0,5.5-1,7.6-3.1c2.1-2.1,3.1-4.6,3.1-7.5c0-2.9-1-5.4-3.1-7.5C211.4,152.2,208.9,151.1,205.9,151.1z"/>
		<path d="M178.3,206.6c-2-1.6-4.3-2.5-7.1-2.5s-5.1,0.8-7.1,2.4c-2,1.6-3.2,3.4-3.7,6.4H182C181.5,210,180.3,208.3,178.3,206.6z"/>
		<path d="M205.9,257.1c-3,0-5.5,1-7.6,3.1c-2.1,2.1-3.1,4.6-3.1,7.5c0,2.9,1,5.4,3.1,7.5c2.1,2.1,4.6,3.1,7.6,3.1
			c3,0,5.5-1,7.6-3.1c2.1-2.1,3.1-4.6,3.1-7.5c0-2.9-1-5.4-3.1-7.5C211.4,258.2,208.9,257.1,205.9,257.1z"/>
		<path d="M342.3,214.2c-3.4,0-6.1,0.7-8,2.2c-1.4,1.1-2.2,2.4-2.2,3.9c0,1.4,0.6,2.6,1.7,3.6s2.7,1.4,4.8,1.4c2,0,4.1-0.4,5.8-1.2
			c1.7-0.8,3.5-2.1,5.5-3.9v-5.2c-1-0.3-2.4-0.5-3.6-0.7C345.1,214.3,343.7,214.2,342.3,214.2z"/>
		<path d="M438.2,135.9c0.2-1.7-10.5-8.1-9.2-9.6s-1.1-7.9-1.1-7.9s-5.5,6.8-4.9,3.2s-2.4-10.7-2.4-10.7s-9.2,15.8-16.3,13.8
			c-7-2-1.6-5.6-12-10.5c-10.2-4.8-12,0-26.1-34.1s-89.4-58.2-111.4-68.3c-22.1-10-44.2-8-60.2-8s-61.2,49.2-75.3,62.2
			c-14.1,13.1-20.1,38.2-20.1,46.2S84,148.2,75,162.3c-9,14.1-19,65.3-19,65.3s0,6.6,0,12S5.7,295.3,5.7,295.3s39.6,9.5,56.9,17
			c17.3,7.5,6,48.5,21.9,59.1c15.8,10.5,20,83.8,20,83.8s7.5-6.5,13.5-15.5c7.3-11,15.9-11.1,18.5-17.5
			c4.3-10.6,16.6-21.8,21.8-22.6c5.3-0.8,18.8,7.2,31.2,13.6c12.4,6.4,33.9,19.6,38.8,19.6c4.9,0,11.3-6.4,15.1-8.7
			c3.8-2.3,5.3-12,6.4-15.1c1.1-3,8.3-2.6,12.8-3c4.5-0.4,8.7-3,10.2-6.8s2.3-8.3,4.5-9.8c2.3-1.5,8.3-1.9,10.9-1.9s7.2-4.5,7.9-5.6
			s4.9-10.2,6.8-12.8s6.5-0.5,8,0c1.5,0.5,17.1,3,22.1,3c5,0,9-6.5,11.5-9.5c2.5-3,5.5-23.6,5.5-30.6c0-7-2-22.6-1.5-25.9
			c0.5-3.3,14.1-11.3,17.6-11.8s7-18.1,9-21.3s-0.5-12.3,1.3-18.8c1.8-6.5,16.6-39.4,16.6-39.4s10.3,1.3,18.8,1.8
			c8.5,0.5,18.8-16.8,25.4-31.9C443.6,169.6,438,137.6,438.2,135.9z M145.9,278.3c-1.9,1.6-4.7,2.3-8.4,2.3s-6.7-0.9-9.1-2.8
			c0,0.6,0,1-0.1,1.2c-0.1,0.2-0.2,0.3-0.4,0.5c-0.2,0.1-0.4,0.2-0.7,0.2c-0.3,0-0.7-0.1-0.9-0.4c-0.2-0.2-0.4-0.6-0.4-1.2v-4.8
			c0-0.6,0.2-1,0.4-1.2c0.2-0.2,0.5-0.4,0.9-0.4c0.3,0,0.6,0.1,0.9,0.3c0.2,0.2,0.4,0.5,0.4,0.9c0,0.9,0.2,1.6,0.6,2.1
			c0.6,0.9,1.7,1.6,3.1,2.2c1.4,0.6,3.2,0.9,5.2,0.9c3,0,5.3-0.6,6.8-1.7c1.5-1.1,2.2-2.3,2.2-3.6c0-1.4-0.8-2.6-2.3-3.5
			c-1.5-0.9-3.7-1.5-6.6-1.8c-2.9-0.3-5-0.7-6.3-1.2c-1.3-0.5-2.2-1.2-3-2.2c-0.7-1-1.1-2-1.1-3.1c0-2,1-3.6,3-4.8
			c2-1.2,4.3-1.8,7.1-1.8c3.2,0,5.9,0.8,7.9,2.4c0-0.5,0.1-0.9,0.3-1.2s0.5-0.4,0.8-0.4c0.4,0,0.9,0.1,1.1,0.4
			c0.2,0.2,0.6,0.7,0.6,1.2v4c0,0.6-0.3,1-0.6,1.2c-0.2,0.2-0.6,0.4-1,0.4c-0.3,0-0.6-0.1-0.8-0.3c-0.2-0.2-0.4-0.5-0.4-1
			c-0.1-1.1-0.7-2-1.7-2.8c-1.5-1-3.5-1.6-6.1-1.6c-2.6,0-4.7,0.5-6.1,1.6c-1.1,0.8-1.6,1.7-1.6,2.7c0,1.1,0.6,2,1.9,2.8
			c0.9,0.5,2.6,0.9,5.1,1.2c3.3,0.4,5.5,0.8,6.8,1.2c1.8,0.7,3.1,1.6,4,2.7c0.9,1.2,1.3,2.4,1.3,3.7
			C148.8,275,147.9,276.8,145.9,278.3z M150.2,224.6c-0.6,0.6-2,1.3-4.3,2s-4.5,1.1-6.6,1.1c-2.7,0-5-0.6-6.7-1.9
			c-1.6-1.3-2.6-3-2.6-5.2V205h-4c-0.6,0-1-0.1-1.2-0.3s-0.4-0.5-0.4-0.9c0-0.3,0.1-0.4,0.4-0.6c0.2-0.2,0.6-0.1,1.2-0.1h4v-7.3
			c0-0.6,0.3-1,0.5-1.2c0.2-0.2,0.6-0.4,0.9-0.4c0.4,0,0.9,0.1,1.1,0.4c0.2,0.2,0.5,0.6,0.5,1.2v7.3h12.4c0.6,0,1-0.1,1.2,0.1
			c0.2,0.2,0.4,0.4,0.4,0.8c0,0.3-0.1,0.6-0.4,0.8c-0.2,0.2-0.6,0.3-1.2,0.3H133v15.6c0,1.4,0.4,2.5,1.5,3.4
			c1.1,0.9,2.6,1.4,4.7,1.4c1.6,0,3.2-0.2,5.1-0.7c1.8-0.5,3.2-1,4.3-1.6c0.4-0.2,0.7-0.4,0.9-0.4c0.3,0,0.6,0.1,0.8,0.3
			c0.2,0.2,0.3,0.5,0.3,0.8C150.5,224.1,150.4,224.4,150.2,224.6z M151,151.6c0,0.6-0.3,1-0.5,1.2c-0.2,0.2-0.6,0.4-1,0.4
			c-0.4,0-0.8-0.1-1-0.4c-0.2-0.2-0.5-0.6-0.5-1.2V143h-9v28h5.7c0.6,0,1,0.3,1.2,0.5c0.2,0.2,0.4,0.6,0.4,1c0,0.3-0.1,0.8-0.4,1
			c-0.2,0.2-0.6,0.5-1.2,0.5h-14.5c-0.6,0-1-0.2-1.2-0.5c-0.2-0.2-0.4-0.6-0.4-0.9c0-0.4,0.1-0.9,0.4-1.1c0.2-0.2,0.6-0.6,1.2-0.6
			h5.8v-28h-9v8.6c0,0.6-0.3,1-0.5,1.2c-0.2,0.2-0.6,0.4-0.9,0.4c-0.3,0-0.8-0.1-1-0.4c-0.2-0.2-0.5-0.6-0.5-1.2V141h27V151.6z
			 M158.1,214.2c0-3.4,1.3-6.3,3.8-8.8c2.5-2.4,5.6-3.7,9.3-3.7c3.8,0,7,1.1,9.4,3.6s3.7,5.6,3.7,9.6h-23.9c0.4,3,1.7,5.6,3.8,7.4
			c2.1,1.8,4.8,2.8,7.9,2.8c1.7,0,3.6-0.3,5.5-0.8c1.9-0.6,3.5-1.3,4.7-2.3c0.4-0.3,0.7-0.4,0.9-0.4c0.3,0,0.6,0.1,0.8,0.4
			c0.2,0.2,0.3,0.5,0.3,0.8c0,0.3-0.1,0.6-0.4,0.9c-0.9,0.9-2.5,1.8-4.8,2.6c-2.3,0.8-4.6,1.2-7,1.2c-4,0-7.4-1.3-10-3.9
			S158.1,217.9,158.1,214.2z M184.4,277.6c-0.6,0.6-2,1.3-4.3,2s-4.5,1.1-6.6,1.1c-2.7,0-4.7-0.6-6.3-1.9c-1.6-1.3-2.2-3-2.2-5.2
			V258h-4.8c-0.6,0-1-0.1-1.2-0.3s-0.4-0.5-0.4-0.9c0-0.3,0.1-0.4,0.4-0.6c0.2-0.2,0.6-0.1,1.2-0.1h4.8v-7.3c0-0.6-0.1-1,0.1-1.2
			c0.2-0.2,0.4-0.4,0.7-0.4c0.4,0,0.6,0.1,0.9,0.4s0.3,0.6,0.3,1.2v7.3h12.6c0.6,0,1-0.1,1.2,0.1c0.2,0.2,0.4,0.4,0.4,0.8
			c0,0.3-0.1,0.6-0.4,0.8c-0.2,0.2-0.6,0.3-1.2,0.3H167v15.6c0,1.4,0.5,2.5,1.6,3.4c1.1,0.9,2.7,1.4,4.8,1.4c1.6,0,3.3-0.2,5.1-0.7
			c1.8-0.5,3.3-1,4.3-1.6c0.4-0.2,0.7-0.4,0.9-0.4c0.3,0,0.6,0.1,0.8,0.3s0.3,0.5,0.3,0.8C184.8,277.1,184.6,277.4,184.4,277.6z
			 M185.8,173.5c-0.2,0.2-0.6,0.5-1.2,0.5H177c-0.6,0-1-0.2-1.2-0.5c-0.2-0.2-0.4-0.6-0.4-0.9c0-0.4,0.1-0.9,0.4-1.1
			c0.2-0.2,0.6-0.6,1.2-0.6h3v-13.9c0-1.7-0.8-3.1-2-4.2c-1.2-1.1-3-1.7-5.2-1.7c-1.7,0-3.2,0.4-4.4,1.3c-0.9,0.6-2.4,2-4.4,4.2V171
			h2.6c0.6,0,1,0.3,1.2,0.5c0.2,0.2,0.4,0.6,0.4,1c0,0.3-0.1,0.8-0.4,1c-0.2,0.2-0.6,0.5-1.2,0.5H159c-0.6,0-1-0.2-1.2-0.5
			c-0.2-0.2-0.4-0.6-0.4-0.9c0-0.4,0.1-0.9,0.4-1.1c0.2-0.2,0.6-0.6,1.2-0.6h3v-30h-3.5c-0.6,0-1,0-1.2-0.3
			c-0.2-0.2-0.4-0.5-0.4-0.8c0-0.3,0.1-0.5,0.4-0.7c0.2-0.2,0.6-0.2,1.2-0.2h5.5v14.2c1-1.6,2.9-2.8,4.3-3.4c1.4-0.7,2.9-1,4.6-1
			c1.8,0,3.4,0.3,4.6,1c1.3,0.6,2.3,1.6,3.2,3c0.9,1.3,1.3,2.7,1.3,4.2V171h2.6c0.6,0,1,0.3,1.2,0.5c0.2,0.2,0.3,0.7,0.3,1
			C186.2,172.9,186,173.3,185.8,173.5z M215.2,276.9c-2.6,2.5-5.6,3.8-9.2,3.8c-3.6,0-6.7-1.3-9.3-3.8c-2.5-2.5-3.8-5.6-3.8-9.1
			c0-3.6,1.3-6.6,3.8-9.2s5.6-3.8,9.3-3.8c3.6,0,6.7,1.3,9.2,3.8c2.6,2.5,3.8,5.6,3.8,9.2C219,271.3,217.8,274.3,215.2,276.9z
			 M198.1,194c-0.6,0-1,0-1.2-0.3c-0.3-0.2-0.4-0.5-0.4-0.8c0-0.3,0.1-0.5,0.4-0.7c0.2-0.2,0.6-0.2,1.2-0.2h8.9v32h9.3
			c0.6,0,1,0.3,1.2,0.5c0.2,0.2,0.4,0.6,0.4,1c0,0.3-0.1,0.8-0.4,1c-0.2,0.2-0.7,0.5-1.2,0.5h-20.7c-0.6,0-1-0.2-1.2-0.5
			c-0.2-0.2-0.4-0.6-0.4-0.9c0-0.4,0.1-0.9,0.4-1.1c0.2-0.2,0.6-0.6,1.2-0.6h9.4v-30H198.1z M215.2,170.9c-2.6,2.5-5.6,3.8-9.2,3.8
			c-3.6,0-6.7-1.3-9.3-3.8c-2.5-2.5-3.8-5.6-3.8-9.1c0-3.6,1.3-6.6,3.8-9.2c2.5-2.5,5.6-3.8,9.3-3.8c3.6,0,6.7,1.3,9.2,3.8
			c2.6,2.5,3.8,5.6,3.8,9.2C219,165.3,217.8,168.3,215.2,170.9z M253.8,259.4c-0.2,0.2-0.5,0.3-0.9,0.3c-0.2,0-0.3,0-0.5-0.1
			c-0.1-0.1-0.4-0.3-0.7-0.6c-0.7-0.6-1.2-1.1-1.7-1.3c-0.5-0.2-1-0.4-1.4-0.4c-1,0-2.5,0.4-3.9,1.2c-1.4,0.8-3.7,2.8-7.7,6V277
			h10.8c0.6,0,1,0.3,1.2,0.5c0.2,0.2,0.4,0.6,0.4,1c0,0.3-0.1,0.8-0.4,1c-0.2,0.2-0.7,0.5-1.2,0.5h-18.4c-0.6,0-1-0.2-1.2-0.4
			c-0.2-0.2-0.4-0.6-0.4-0.9c0-0.3,0.1-0.9,0.3-1.1c0.2-0.2,0.6-0.6,1.2-0.6h5.6v-19h-4.3c-0.6,0-1-0.1-1.2-0.3
			c-0.2-0.2-0.4-0.5-0.4-0.9c0-0.3,0.1-0.4,0.3-0.6c0.2-0.2,0.6-0.1,1.2-0.1h6.3v5.5c3-2.7,5.5-4.5,7-5.3c1.5-0.8,3-1.2,4.3-1.2
			c1.4,0,2.7,0.5,3.9,1.4s1.8,1.6,1.8,2.1C254.1,258.9,254,259.2,253.8,259.4z M232.3,194c-0.6,0-1,0-1.2-0.3
			c-0.3-0.2-0.4-0.5-0.4-0.8c0-0.3,0.1-0.5,0.4-0.7c0.2-0.2,0.6-0.2,1.2-0.2h8.7v32h9.6c0.6,0,1,0.3,1.2,0.5c0.2,0.2,0.4,0.6,0.4,1
			c0,0.3-0.1,0.8-0.4,1c-0.2,0.2-0.7,0.5-1.2,0.5h-20.7c-0.6,0-1-0.2-1.2-0.5c-0.2-0.2-0.4-0.6-0.4-0.9c0-0.4,0.1-0.9,0.4-1.1
			c0.2-0.2,0.6-0.6,1.2-0.6h9.1v-30H232.3z M256.6,173.5c-0.2,0.2-0.6,0.5-1.2,0.5H251v-18.7c0-1.2-0.3-2.2-1.1-3
			c-0.7-0.8-1.5-1.2-2.5-1.2c-0.9,0-1.5,0.3-2.5,1c-0.9,0.6-2,1.9-3,3.8V171h1.5c0.6,0,1,0.3,1.2,0.5c0.2,0.2,0.4,0.6,0.4,1
			c0,0.3-0.1,0.8-0.4,1c-0.2,0.2-0.6,0.5-1.2,0.5H239v-18.6c0-1.2-0.3-2.3-1-3.1s-1.5-1.2-2.4-1.2c-0.8,0-1.4,0.3-2.2,0.8
			c-1.1,0.8-2.3,2.1-3.3,3.9V171h1.5c0.6,0,1,0.3,1.2,0.5c0.2,0.2,0.4,0.6,0.4,1c0,0.3-0.1,0.8-0.4,1c-0.2,0.2-0.6,0.5-1.2,0.5h-6.3
			c-0.6,0-1-0.2-1.2-0.5c-0.2-0.2-0.4-0.6-0.4-0.9c0-0.4,0.1-0.9,0.4-1.1c0.2-0.2,0.6-0.6,1.2-0.6h1.8v-19h-1.8
			c-0.6,0-1-0.1-1.2-0.3s-0.4-0.5-0.4-0.9c0-0.3,0.1-0.4,0.4-0.6c0.2-0.2,0.6-0.1,1.2-0.1h4.8v2c2-2.1,3.8-3.2,5.8-3.2
			c1.2,0,2.2,0.3,3.1,1c0.9,0.6,1.6,1.6,2.2,2.9c1-1.3,2.1-2.3,3.1-2.9c1.1-0.6,2.1-1,3.2-1c1.7,0,2.8,0.5,3.8,1.6
			c1.3,1.4,1.8,3,1.8,4.6v16h2.4c0.6,0,1,0.3,1.2,0.5c0.2,0.2,0.4,0.7,0.4,1C256.9,172.9,256.8,173.3,256.6,173.5z M264.5,161.4
			c2.1-1.7,5.1-2.5,9.1-2.5c1.1,0,2.2,0.1,3.4,0.2c1.3,0.1,3,0.4,4,0.7v-3.8c0-1.3-0.5-2.4-1.7-3.3c-1.2-0.9-2.9-1.4-5.3-1.4
			c-1.8,0-4.4,0.5-7.6,1.6c-0.6,0.2-1,0.3-1.1,0.3c-0.3,0-0.5-0.1-0.8-0.3c-0.2-0.2-0.3-0.5-0.3-0.8c0-0.3,0.1-0.6,0.3-0.8
			c0.3-0.3,1.3-0.7,3.1-1.1c2.9-0.8,5.1-1.2,6.6-1.2c3,0,5.5,0.7,7.1,2.2c1.7,1.5,2.7,3.1,2.7,4.9V171h2.7c0.6,0,1,0.3,1.2,0.5
			c0.2,0.2,0.4,0.6,0.4,1c0,0.3-0.1,0.8-0.4,1c-0.2,0.2-0.7,0.5-1.2,0.5H281v-3.6c-3,2.9-6.9,4.3-10.8,4.3c-2.8,0-5-0.7-6.5-2.1
			c-1.6-1.4-2.3-3.2-2.3-5.2C261.3,165,262.4,163.1,264.5,161.4z M281.2,216.5c-1.5-0.9-3.7-1.5-6.6-1.8c-2.9-0.3-5-0.7-6.3-1.2
			c-1.3-0.5-2.2-1.2-3-2.2c-0.7-1-1.1-2-1.1-3.1c0-2,1-3.6,3-4.8c2-1.2,4.3-1.8,7.1-1.8c3.2,0,5.9,0.8,7.9,2.4
			c0-0.5,0.1-0.9,0.3-1.2c0.2-0.2,0.5-0.4,0.8-0.4c0.4,0,0.9,0.1,1.1,0.4c0.2,0.2,0.6,0.7,0.6,1.2v4c0,0.6-0.3,1-0.6,1.2
			c-0.2,0.2-0.6,0.4-1,0.4c-0.3,0-0.6-0.1-0.9-0.3c-0.2-0.2-0.4-0.5-0.4-1c-0.1-1.1-0.7-2-1.7-2.8c-1.5-1-3.5-1.6-6.1-1.6
			c-2.6,0-4.7,0.5-6.1,1.6c-1.1,0.8-1.6,1.7-1.6,2.7c0,1.1,0.6,2,1.9,2.8c0.9,0.5,2.6,0.9,5.1,1.2c3.3,0.4,5.5,0.8,6.8,1.2
			c1.8,0.7,3.1,1.6,4,2.7c0.9,1.2,1.3,2.4,1.3,3.7c0,2-1,3.8-2.9,5.3c-1.9,1.6-4.7,2.3-8.4,2.3c-3.7,0-6.7-0.9-9.1-2.8
			c0,0.6,0,1-0.1,1.2c-0.1,0.2-0.2,0.3-0.4,0.5c-0.2,0.1-0.4,0.2-0.7,0.2c-0.3,0-0.7-0.1-0.9-0.4c-0.2-0.2-0.4-0.6-0.4-1.2v-4.8
			c0-0.6,0.2-1,0.4-1.2c0.2-0.2,0.5-0.4,0.9-0.4c0.3,0,0.6,0.1,0.9,0.3c0.2,0.2,0.4,0.5,0.4,0.9c0,0.9,0.2,1.6,0.6,2.1
			c0.7,0.9,1.7,1.6,3.1,2.2c1.4,0.6,3.2,0.9,5.2,0.9c3,0,5.3-0.6,6.8-1.7c1.5-1.1,2.2-2.3,2.2-3.6
			C283.5,218.6,282.7,217.4,281.2,216.5z M289.9,257.5c-0.1,0.2-0.3,0.3-0.5,0.4c-0.2,0.1-0.7,0-1.6,0L273,288h3.7
			c0.6,0,1,0.2,1.2,0.4s0.4,0.5,0.4,0.9c0,0.3-0.1,0.9-0.4,1.1c-0.2,0.2-0.6,0.6-1.2,0.6h-13.5c-0.6,0-1-0.4-1.2-0.6
			c-0.2-0.2-0.4-0.6-0.4-1c0-0.4,0.1-0.8,0.4-1s0.6-0.5,1.2-0.5h7.3l4.1-8.3L263.7,258H263c-0.6,0-1-0.1-1.2-0.3s-0.4-0.5-0.4-0.8
			c0-0.2,0.1-0.5,0.2-0.7c0.1-0.2,0.3-0.1,0.5-0.2c0.2-0.1,0.5,0.1,0.9,0.1h6.4c0.6,0,1-0.1,1.2,0.1c0.2,0.2,0.4,0.4,0.4,0.8
			c0,0.3-0.1,0.6-0.4,0.8s-0.6,0.3-1.2,0.3h-3.1l9.6,19.2l9.4-19.2h-3.1c-0.6,0-1-0.1-1.2-0.3s-0.4-0.5-0.4-0.9
			c0-0.3,0.1-0.4,0.4-0.6c0.2-0.2,0.6-0.1,1.2-0.1h6.4c0.6,0,1-0.1,1.2,0.1c0.2,0.2,0.4,0.4,0.4,0.8
			C290.1,257.1,290,257.3,289.9,257.5z M311.9,279.7c-0.8,0.7-1.6,1.3-2.7,1.3h-1c-1,0-1.9-0.6-2.7-1.3c-0.7-0.7-1.1-1.7-1.1-2.8
			c0-1.1,0.4-2,1.1-2.8c0.8-0.7,1.6-1.2,2.7-1.2h1c1,0,1.9,0.4,2.7,1.1c0.7,0.7,1.1,1.7,1.1,2.8C313,278,312.6,279,311.9,279.7z
			 M317.2,172.3c-1.9,1.6-4.7,2.3-8.4,2.3c-3.7,0-6.7-0.9-9.1-2.8c0,0.6,0,1-0.1,1.2c-0.1,0.2-0.2,0.3-0.4,0.5
			c-0.2,0.1-0.4,0.2-0.7,0.2c-0.3,0-0.8-0.1-1-0.4c-0.2-0.2-0.5-0.6-0.5-1.2v-4.8c0-0.6,0.3-1,0.5-1.2c0.2-0.2,0.6-0.4,0.9-0.4
			c0.3,0,0.7,0.1,0.9,0.3c0.2,0.2,0.4,0.5,0.4,0.9c0,0.9,0.2,1.6,0.7,2.1c0.7,0.9,1.7,1.6,3.1,2.2c1.4,0.6,3.2,0.9,5.2,0.9
			c3,0,5.3-0.6,6.8-1.7c1.5-1.1,2.2-2.3,2.2-3.6c0-1.4-0.8-2.6-2.3-3.5c-1.5-0.9-3.7-1.5-6.6-1.8c-2.9-0.3-5-0.7-6.3-1.2
			c-1.3-0.5-2.2-1.2-3-2.2s-1.1-2-1.1-3.1c0-2,1-3.6,3-4.8c2-1.2,4.3-1.8,7-1.8c3.2,0,5.9,0.8,7.9,2.4c0-0.5,0.1-0.9,0.3-1.2
			c0.2-0.2,0.5-0.4,0.8-0.4c0.4,0,0.7,0.1,1,0.4c0.2,0.2,0.4,0.7,0.4,1.2v4c0,0.6-0.2,1-0.4,1.2c-0.2,0.2-0.6,0.4-0.9,0.4
			c-0.3,0-0.6-0.1-0.8-0.3c-0.2-0.2-0.4-0.5-0.4-1c-0.1-1.1-0.7-2-1.7-2.8c-1.5-1-3.5-1.6-6-1.6c-2.6,0-4.7,0.5-6.1,1.6
			c-1.1,0.8-1.6,1.7-1.6,2.7c0,1.1,0.6,2,1.9,2.8c0.9,0.5,2.6,0.9,5.1,1.2c3.3,0.4,5.5,0.8,6.8,1.2c1.8,0.7,3.1,1.6,4,2.7
			c0.9,1.2,1.3,2.4,1.3,3.7C320.1,169,319.1,170.8,317.2,172.3z M356.4,226.5c-0.2,0.2-0.7,0.5-1.2,0.5H350v-3.6
			c-4,2.9-7.2,4.3-11.1,4.3c-2.8,0-5.1-0.7-6.7-2.1c-1.6-1.4-2.4-3.2-2.4-5.2c0-2.3,1-4.2,3.1-5.9c2.1-1.7,5.1-2.5,9.1-2.5
			c1.1,0,2.4,0.1,3.7,0.2c1.3,0.1,2.3,0.4,4.3,0.7v-3.8c0-1.3-0.8-2.4-1.9-3.3c-1.2-0.9-3.1-1.4-5.4-1.4c-1.8,0-4.4,0.5-7.7,1.6
			c-0.6,0.2-1,0.3-1.2,0.3c-0.3,0-0.6-0.1-0.8-0.3c-0.2-0.2-0.3-0.5-0.3-0.8c0-0.3,0.1-0.6,0.3-0.8c0.3-0.3,1.3-0.7,3.1-1.1
			c2.9-0.8,5.1-1.2,6.6-1.2c3,0,5.2,0.7,6.9,2.2c1.7,1.5,2.5,3.1,2.5,4.9V224h3.2c0.6,0,1,0.3,1.2,0.5c0.2,0.2,0.4,0.7,0.4,1
			C356.8,225.9,356.6,226.3,356.4,226.5z"/>
	</g>
	<path d="M425.9,452.8c-0.6-2.4-1.2-4.9-1.7-7.3c-0.4-0.6-0.9-1.2-1.2-1.8c-2.1-4.5-5.3-8.2-9.2-11.3c-8.7-6.8-17.4-13.7-26.1-20.4
		c-5.9-4.6-12.4-7.6-20.1-7.4c-9.8,0.3-17.5,4.6-23.4,12.3c-5.6,7.3-11.3,14.5-17,21.8c-9,11.5-36.1,45.7-45,57.3
		c-2.4,3.1-1.9,6.5,1.2,9c2.7,2.1,5.4,4.2,8.1,6.3c0.3,0.3,0.6,0.5,1,0.8h97.4c5.2-6.6,9.8-12.5,12.8-16.4
		c5.3-6.8,10.6-13.6,16-20.4c4.9-6.1,7.5-13,7.1-21C425.7,453.8,425.8,453.3,425.9,452.8z"/>

</svg>
