<?xml version="1.0" encoding="utf-8"?>
<!-- Generator: Adobe Illustrator 21.0.0, SVG Export Plug-In . SVG Version: 6.00 Build 0)  -->
<svg version="1.1" id="Layer_1" xmlns="http://www.w3.org/2000/svg" xmlns:xlink="http://www.w3.org/1999/xlink" x="0px" y="0px"
	 viewBox="0 0 512 512" style="enable-background:new 0 0 512 512;" xml:space="preserve">
<path d="M152.9,374.1c-52.2-2.7-86.6-39.8-96.1-72.8c7.5,0.3,14.9,1.1,22.3,0.8c7.5-0.3,14.9-1.5,22.4-2.9
	c-51.4-16-79-50.3-82-104.1c14.7,6.4,29.5,11.6,46.9,11.8c-22.8-16.6-37.6-37.4-43.5-63.9c-5.9-26.6-2-51.8,11.4-76.1
	c57,66.9,128.9,103.8,216.9,109.9c-0.7-6.7-1.6-12.8-1.9-18.9c-1.5-32.7,9.7-60.4,33.6-82.6c26.3-24.3,57.8-32.3,92.7-25.8
	c20.2,3.8,37.8,13.3,52.3,28c2.1,2.2,4.1,2.8,7.2,2.1c20.7-4.7,40.3-12.1,58.7-22.4c0.7-0.4,1.5-0.8,2.2-1.1c0.2-0.1,0.5,0,1.4,0
	c-7.9,23.8-22.8,41.9-43.1,56c19.8-1.5,38.3-7.5,57.5-15.2c-12.6,18.4-26.5,33.9-43,46.9c-0.4,0.3-0.8,0.7-1.3,1
	c-6.9,3.7-8.1,9.4-7.9,17c0.9,40.3-7.3,79-22.3,116.3c-11.7,29.1-27.4,55.9-47.2,80.2c-16.1,19.8-34.5,37.1-55.3,52.1
	c-23,16.6-48,29.4-74.8,38.4c-23.4,7.9-47.5,12.7-72.1,14.6c-29.7,2.3-59.3,1.1-88.5-5.1c-24.7-5.2-48.5-13.1-71-24.7
	c-9.4-4.9-18.7-10-27.8-15.6c27.5,1.9,54.4,0.2,80.8-7.3C107.5,403.4,131.6,391.5,152.9,374.1z"/>
</svg>
